<svg width="16040" height="14703" viewBox="0 0 16040 14703" fill="none" xmlns="http://www.w3.org/2000/svg">
<path d="M1876.35 13814.3C1906.86 13693.6 1827.25 13573 1738.17 13486C1649.08 13399 1542.47 13321.5 1495.82 13205.4C1420.06 13018.5 1518.97 12775.1 1390.6 12619.7C1315.2 12528.2 1180.17 12498 1113.54 12400.2C1082.53 12346 1061.84 12286.5 1052.51 12224.8C979.867 11914.2 825.058 11628.8 604.29 11398.5C591.177 11675.9 652.831 11951.7 782.806 12197.1C835.064 12295.3 898.895 12390.7 916.781 12500.1C945.54 12678.3 846.637 12862.1 891.88 13036.7C943.085 13236.6 1168.6 13369.2 1180.52 13575.1C1190.34 13750.4 1040.23 13902.7 1051.81 14076.6C1061.12 14151 1088.05 14222 1130.37 14283.9C1266.45 14506.9 1464.96 14659.9 1764.47 14653.2L2131.68 14664.1L1876.35 13814.3Z" fill="#F5F5F5"/>
<path d="M2206.03 14671.8C2239.6 14676.8 2273.79 14675.9 2307.04 14669C2347.69 14662.7 2387.63 14652.5 2426.28 14638.5C2479.44 14619.5 2529.1 14591.9 2573.23 14556.7C2599.49 14535 2620.07 14507.2 2633.21 14475.7C2644.13 14440.2 2649.68 14403.2 2649.69 14366C2650.18 14326.2 2652.87 14286.5 2657.76 14247.1C2664.71 14205.2 2679.72 14165 2701.95 14128.9C2744.73 14052.4 2816.28 13980.2 2838.73 13876.7C2861.17 13773.2 2844.69 13666.3 2827.15 13555.1C2809.62 13443.9 2792.08 13325.4 2833.82 13210.3C2875.55 13095.3 2952.36 12991.1 2991.64 12861.4C3030.92 12731.6 3011.63 12590.3 3019.35 12451.4C3021.55 12381 3037.39 12311.6 3065.99 12247.3C3095.45 12182 3136.14 12120.6 3168.05 12052.3C3232.24 11912 3242.76 11756.6 3259.94 11603C3268.13 11525.6 3276.43 11447.4 3284.84 11368.3C3289.92 11288.9 3303.2 11210.1 3324.47 11133.4C3348.68 11055.8 3377.49 10979.8 3410.75 10905.7C3428.07 10867.4 3442.14 10827.6 3452.84 10786.9C3458.79 10745 3462.54 10702.9 3464.06 10660.6C3467.5 10575.7 3463.75 10490.6 3452.84 10406.3C3442.32 10321.8 3426.53 10238 3417.77 10153.1C3417.77 10147.8 3417.77 10142.9 3417.77 10138.4L3415.66 10121.5L3400.58 10129.3C3322.99 10169.3 3255.66 10226.6 3203.83 10296.9C3153.55 10365.7 3113.17 10441.3 3083.88 10521.4C3023.56 10679.5 3002.16 10844.7 2972.35 11002.9C2942.54 11161.1 2902.21 11316.1 2824 11447.6C2784.01 11513.2 2735.97 11573.2 2693.53 11637C2648.34 11699.6 2617.67 11771.5 2603.74 11847.4C2582.7 12002.8 2669.33 12138.9 2652.14 12276.4C2644 12343.9 2621.52 12409 2586.21 12467.2C2553.24 12526.1 2516.06 12580.8 2477.49 12635.5C2439.85 12689.1 2407.21 12746 2379.99 12805.6C2354.44 12863.9 2339.48 12926.2 2335.79 12989.7C2327.73 13113.5 2345.97 13231 2337.55 13340.4C2327.9 13446.1 2297.63 13548.8 2248.47 13642.8C2204.63 13733.3 2155.88 13815 2114.84 13894.6C2094.48 13932.7 2076.1 13971.8 2059.78 14011.7C2045.33 14049.4 2034.75 14088.4 2028.21 14128.2C2018.14 14197.9 2018.14 14268.8 2028.21 14338.6C2038.09 14435.4 2074.5 14527.7 2133.43 14605.1C2142.3 14616.7 2152.28 14627.4 2163.24 14637.1C2170.51 14644.7 2178.63 14651.6 2187.44 14657.4C2201.12 14667.6 2208.48 14672.1 2208.48 14672.1C2182.75 14651.2 2159.24 14627.7 2138.34 14602C2081.4 14524.5 2046.49 14433 2037.33 14337.2C2028.59 14268.5 2029.77 14199 2040.84 14130.6C2047.26 14091.7 2057.97 14053.6 2072.75 14017C2089.08 13977.5 2107.46 13938.8 2127.82 13901.2C2169.2 13822.7 2218.65 13741 2263.55 13649.8C2314.18 13554.3 2345.41 13449.8 2355.44 13342.2C2364.55 13228.9 2346.67 13111.4 2355.44 12991.5C2357.68 12929.4 2370.99 12868.3 2394.72 12810.9C2421.86 12752.6 2454.13 12696.8 2491.16 12644.3C2527.99 12589.9 2567.27 12535.2 2601.29 12474.9C2638.59 12414.5 2662.51 12346.8 2671.43 12276.4C2688.27 12129.8 2601.29 11993 2623.74 11848.5C2637.42 11776 2667.14 11707.4 2710.71 11647.9C2752.1 11585.1 2800.85 11525.1 2841.88 11457.8C2924.3 11322.4 2963.93 11164.2 2993.39 11005.7C3022.86 10847.2 3044.95 10683 3104.22 10528.4C3132.78 10450.4 3172.21 10376.8 3221.36 10309.9C3270.77 10242.3 3335.26 10187.2 3409.7 10148.9L3392.86 10139.4C3392.86 10144.3 3392.86 10149.2 3392.86 10154.5C3402.33 10240.1 3418.12 10324.3 3427.94 10407.7C3438.83 10490.7 3442.59 10574.5 3439.16 10658.1C3437.06 10698.8 3434.6 10742 3428.64 10780.5C3418.17 10819.8 3404.56 10858.2 3387.95 10895.2C3354.42 10970.2 3325.26 11047 3300.63 11125.3C3279.17 11203.3 3265.78 11283.4 3260.64 11364.1C3252.58 11443.4 3244.16 11521.6 3236.09 11599.1C3219.26 11753.4 3208.74 11907.8 3146.66 12041.7C3116.15 12108.4 3076.52 12170.1 3045.3 12237.1C3015.89 12303.5 2999.58 12374.9 2997.25 12447.5C2989.89 12587.8 3009.18 12728.1 2971.65 12853.3C2934.12 12978.5 2854.86 13083 2814.88 13201.6C2774.9 13320.1 2791.03 13445.3 2809.27 13555.1C2827.5 13664.9 2846.09 13772.9 2822.94 13870.7C2799.8 13968.6 2732.81 14041.2 2688.97 14119.4C2666.18 14158 2651.39 14200.8 2645.48 14245.3C2640.69 14285.2 2638.23 14325.4 2638.12 14365.6C2638.3 14401.2 2633.34 14436.6 2623.39 14470.8C2611.18 14501 2591.66 14527.6 2566.57 14548.3C2523.66 14583.3 2475.32 14611 2423.47 14630.4C2385.4 14644.9 2346.07 14655.8 2305.98 14663C2281.33 14667.5 2256.34 14670 2231.28 14670.4L2206.03 14671.8Z" fill="#E0E0E0"/>
<path d="M3341.31 10341.1C3339.49 10344.5 3338.3 10348.2 3337.8 10352C3335.7 10360.7 3333.24 10371.6 3329.73 10385.3C3322.72 10414 3314.3 10457.9 3300.98 10512.2C3287.65 10566.6 3253.98 10628.7 3225.92 10704.4C3197.86 10780.2 3167 10867.2 3140 10965.4C3112.99 11063.6 3088.44 11172.3 3063.19 11288.7C3041.4 11413.2 3002.58 11534 2947.8 11647.9C2917.99 11707.8 2884.32 11768.5 2858.02 11834.5C2832 11902.2 2814.57 11972.9 2806.11 12044.9C2788.49 12194.3 2762.97 12342.6 2729.65 12489.3L2526.94 13338.7C2463.11 13598.9 2405.24 13833.6 2356.84 14031.4C2308.44 14229.2 2271.26 14389.1 2244.26 14499.6C2231.63 14553.6 2221.81 14596 2214.8 14626.9C2211.99 14640.6 2209.54 14651.4 2207.78 14662C2207.4 14665.8 2207.4 14669.7 2207.78 14673.5C2209.56 14670.1 2210.86 14666.4 2211.64 14662.7L2221.11 14629.7C2229.18 14599.2 2240.75 14557.1 2256.18 14503.4C2284.94 14391.6 2326.32 14233 2376.13 14037.7C2425.93 13842.3 2485.55 13606.3 2551.49 13346.4C2617.42 13086.5 2680.55 12796.5 2752.8 12495.2C2786.12 12348 2811.64 12199 2829.26 12049.1C2836.97 11978.7 2853.58 11909.5 2878.71 11843.2C2904.31 11778.7 2937.28 11718.4 2967.09 11658C3022.36 11542.5 3061.09 11419.7 3082.13 11293.3C3106.68 11176.5 3129.82 11067.8 3156.13 10970.3C3182.43 10872.8 3210.14 10785.1 3238.2 10709.7C3266.25 10634.3 3296.77 10571.5 3308.34 10515C3319.91 10458.6 3327.63 10415.8 3333.24 10386.3C3335.35 10373 3337.1 10361.8 3338.85 10353C3340.17 10349.2 3341 10345.2 3341.31 10341.1V10341.1Z" fill="#E0E0E0"/>
<path d="M2270.91 14672.5C2509.75 14528.7 2576.04 14095.5 2474.68 13836C2373.32 13576.5 2196.91 13339 2168.15 13061.6C2146.06 12848.4 2214.8 12629.2 2163.94 12420.9C2093.8 12140.3 1819.18 11923.2 1820.94 11633.8C1820.94 11471.5 1913.18 11318.2 1904.76 11156.2C1894.59 10957.3 1740.97 10800.2 1645.58 10625.5C1499.33 10358.3 1488.1 10040.2 1436.9 9740.66C1385.69 9441.14 1269.26 9118.48 1001.66 8972.23C963.778 9227.9 896.44 9403.26 920.639 9749.07C929.057 9873.23 1074.61 10110.3 1096 10382.5C1108.63 10544.9 1117.74 10707.9 1128.62 10870.7C1139.49 11033.4 1150.01 11190.5 1207.53 11337.8C1251.72 11451.1 1322.21 11553.9 1355.18 11671C1417.26 11891.3 1338.7 12130.8 1390.25 12354.2C1433.04 12543.3 1565.61 12704.9 1592.97 12897.5C1632.25 13167.2 1458.99 13448.5 1549.83 13704.1C1595.07 13831.5 1700.64 13933.5 1731.15 14065C1755 14167.4 1731.15 14275.5 1751.85 14378.6C1786.92 14544.1 2102.57 14670.7 2271.96 14659.2" fill="#E0E0E0"/>
<path d="M1069.35 9225.45C1068.88 9230.23 1068.88 9235.05 1069.35 9239.83C1069.35 9250.7 1072.5 9264.38 1074.96 9281.92C1080.57 9318.74 1087.23 9372.75 1099.86 9442.55C1112.48 9512.34 1150.36 9591.95 1180.17 9688.05C1209.98 9784.15 1242.25 9893.22 1269.96 10016C1297.66 10138.7 1321.51 10274.8 1346.41 10421.4C1371.32 10568 1398.32 10727.2 1471.97 10879.4C1507.04 10955.9 1544.22 11032.4 1572.98 11113.7C1601.39 11197.6 1619.19 11284.6 1625.94 11372.9C1640.17 11559.7 1664.4 11745.6 1698.54 11929.9C1773.94 12307.9 1846.19 12666.4 1911.42 12995.7C1976.66 13325 2043.65 13617.5 2095.9 13863C2148.16 14108.5 2191.65 14308.1 2221.46 14447.7L2256.53 14606.5C2260.74 14623.4 2263.9 14637.1 2266.35 14647.6C2267.26 14652.3 2268.67 14656.9 2270.56 14661.3C2270.95 14656.5 2270.95 14651.7 2270.56 14646.9C2268.46 14636.4 2266 14622.7 2262.85 14605.5C2255.48 14567.3 2245.31 14514 2231.98 14445.9C2203.92 14305.6 2161.84 14106.1 2113.79 13859.5C2065.74 13613 2002.26 13317.7 1935.27 12990.8C1868.29 12663.9 1799.19 12303.4 1724.84 11925.6C1690.51 11741.7 1665.93 11556 1651.19 11369.4C1644.42 11279.4 1626.27 11190.7 1597.18 11105.3C1567.72 11021.8 1529.14 10945 1494.77 10869.3C1421.82 10719.5 1395.51 10562.7 1368.86 10416.8C1342.21 10270.9 1318.36 10134.2 1289.25 10011.1C1263.56 9900.25 1232.3 9790.81 1195.6 9683.14C1164.74 9587.39 1125.46 9507.78 1112.13 9440.44C1098.81 9373.1 1090.04 9316.99 1082.67 9280.51C1079.52 9263.33 1076.71 9249.65 1074.96 9239.13C1073.47 9234.42 1071.6 9229.84 1069.35 9225.45V9225.45Z" fill="#EBEBEB"/>
<path d="M6549.35 122.861C6754.17 -115.979 7285.86 34.1289 7651.31 228.077C7651.31 228.077 7902.42 346.62 7995.71 407.997H7998.87L8851.82 302.78C8921.16 293.869 8991.56 306.093 9053.84 337.852L9123.98 372.925C9131.89 377 9138.47 383.234 9142.97 390.903C9147.48 398.572 9149.71 407.361 9149.42 416.249C9149.12 425.137 9146.31 433.759 9141.31 441.114C9136.31 448.469 9129.33 454.254 9121.18 457.799L8493.04 726.1V733.815L9113.11 1141.35L9122.58 1147.31C9239.49 1222.3 9380.42 1250.36 9517.14 1225.88L9849.27 1166.25C9866.06 1163.05 9883.4 1164.51 9899.42 1170.46C9912.85 1175.93 9924.65 1184.77 9933.66 1196.13C9942.67 1207.5 9948.59 1221 9950.85 1235.32C9953.1 1249.65 9951.62 1264.31 9946.55 1277.9C9941.47 1291.48 9932.97 1303.52 9921.87 1312.85L9536.08 1634.11C9506.61 1658.85 9470.72 1674.68 9432.58 1679.78C9394.45 1684.87 9355.66 1679.01 9320.73 1662.87L9140.46 1580.1L8228.59 1146.26L8333.81 1664.98C8334.52 1669.98 8334.14 1675.07 8332.69 1679.91C8331.25 1684.75 8328.78 1689.22 8325.45 1693.02C8322.12 1696.81 8318.01 1699.85 8313.4 1701.91C8308.79 1703.97 8303.79 1705.01 8298.74 1704.96H8255.95C8227.23 1703.74 8199.3 1695.25 8174.76 1680.28C8150.22 1665.31 8129.89 1644.36 8115.66 1619.38L7748.46 917.944L6672.45 406.243C6529 340.308 6477.8 217.205 6549.35 122.861Z" fill="#E0E0E0"/>
<path d="M576.232 2419.38L3280.63 2359.4C3280.63 2359.4 3031.27 1928.37 2336.85 2008.68C1673.28 2084.09 1633.3 1810.18 1294.16 1784.22C955.01 1758.27 679.344 2022.36 576.232 2419.38Z" fill="#F5F5F5"/>
<path d="M13222.5 3882.23H15770.5C15770.5 3882.23 15545.3 3471.89 14889.5 3531.51C14262.7 3588.33 14231.2 3329.49 13912.4 3297.93C13593.6 3266.36 13328.4 3510.47 13222.5 3882.23Z" fill="#F5F5F5"/>
<path d="M2116.24 1077.17H4059.93C4059.93 1077.17 3888.08 764.328 3387.6 809.922C2909.92 853.411 2885.72 655.956 2642.67 631.405C2399.63 606.855 2197.26 793.438 2116.24 1077.17Z" fill="#F5F5F5"/>
<path d="M13224.9 5167.97H14496.3C14496.3 5167.97 14384.1 4963.15 14056.9 4992.61C13744 5021.02 13728.2 4891.95 13569.4 4876.17C13410.5 4860.39 13277.9 4982.44 13224.9 5167.97Z" fill="#F5F5F5"/>
<path d="M12589.1 1648.14H13860.8C13860.8 1648.14 13748.2 1443.32 13421 1472.78C13108.2 1501.19 13092.4 1372.13 12933.5 1356.34C12774.6 1340.56 12641 1462.61 12589.1 1648.14Z" fill="#FAFAFA"/>
<path d="M15812.6 14674.6C15812.6 14679.5 12272.7 14683.7 7906.63 14683.7C3540.52 14683.7 0 14679.5 0 14674.6C0 14669.7 3539.12 14665.5 7906.63 14665.5C12274.1 14665.5 15812.6 14669.7 15812.6 14674.6Z" fill="#263238"/>
<path d="M13389.8 8489.99C13387.3 8465.47 13375.7 8442.76 13357.4 8426.29C13339 8409.83 13315.2 8400.78 13290.5 8400.91H12541.7C12527.1 8400.94 12512.7 8404.2 12499.5 8410.47C12486.3 8416.73 12474.7 8425.84 12465.4 8437.14C12456.2 8448.44 12449.5 8461.65 12446 8475.82C12442.5 8489.99 12442.1 8504.77 12445 8519.1V8519.1C12449.4 8541.99 12461.8 8562.57 12479.9 8577.16C12498.1 8591.74 12520.9 8599.38 12544.2 8598.71H13290.9C13304.7 8598.67 13318.4 8595.76 13331 8590.15C13343.7 8584.54 13355 8576.36 13364.3 8566.13C13373.6 8555.91 13380.7 8543.85 13385 8530.75C13389.4 8517.64 13391.1 8503.76 13389.8 8489.99V8489.99Z" fill="#263238"/>
<path d="M15023.1 14429.1C15016.2 14475.8 15023.4 14523.6 15043.7 14566.2C15063.9 14608.9 15096.4 14644.6 15137 14668.8C15177.6 14693.1 15224.4 14704.7 15271.6 14702.3C15318.8 14699.9 15364.2 14683.5 15402.1 14655.3C15440 14627.1 15468.6 14588.3 15484.5 14543.7C15500.3 14499.2 15502.5 14451 15491 14405.2C15479.4 14359.4 15454.5 14318.1 15419.4 14286.4C15384.3 14254.8 15340.6 14234.2 15293.8 14227.4C15231.2 14218.3 15167.5 14234.4 15116.7 14272.2C15066 14310 15032.3 14366.5 15023.1 14429.1V14429.1Z" fill="#263238"/>
<path d="M15209.7 14465.2L15064.1 14164.3L15140.6 14115.5L15281.6 14429.8L15209.7 14465.2Z" fill="#455A64"/>
<path d="M13860.8 10760.6L12956.3 8400.56L12784.4 8486.83L13660.9 10825.4L13860.8 10760.6Z" fill="#263238"/>
<path d="M15949.3 13877.8L14613 14408.8C14589.1 14418.3 14562.5 14417.9 14538.9 14407.7C14515.3 14397.5 14496.7 14378.4 14487.3 14354.6L13158.1 11009.5C13107.9 10883.1 13110 10742 13163.8 10617.1C13217.7 10492.2 13318.9 10393.9 13445.3 10343.7L14008.5 10119.9C14134.9 10069.7 14276 10071.7 14400.9 10125.6C14525.8 10179.4 14624.2 10280.7 14674.4 10407.1L16003.5 13752.1C16013 13776 16012.6 13802.6 16002.4 13826.2C15992.3 13849.8 15973.1 13868.3 15949.3 13877.8V13877.8Z" fill="#FF725E"/>
<path d="M14485.8 14369.8C14485.8 14369.8 14483.7 14362.8 14478.8 14349.5L14456.7 14290.2L14369.7 14062.6L14046 13227.5C13908.2 12875 13744.7 12455.9 13563 11989.8L13277.2 11259.3C13252.7 11196.1 13227.4 11132.3 13202.5 11067.8C13176.1 11004.7 13166.4 10935.8 13174.4 10867.9C13183.1 10798.6 13210.2 10733 13253 10677.9C13295.8 10622.8 13352.7 10580.3 13417.7 10554.8C13482.6 10529.3 13553.2 10521.8 13622.1 10533C13690.9 10544.3 13755.5 10574 13808.9 10618.9C13860.7 10663.4 13900.4 10720.3 13924.3 10784.4L13999.3 10976.2C14098.9 11229.5 14195 11473.6 14286.2 11706.4L14773.4 12942.4C14913.7 13293.1 15024.8 13577.5 15103.4 13775L15193.9 14001.2C15204.4 14026.1 15212.1 14045.7 15218.1 14059.8C15224.1 14073.8 15226.9 14079.4 15226.9 14079.4C15226.9 14079.4 15224.8 14072.4 15219.8 14058.7L15197.8 13999.5C15177.8 13946.8 15148.3 13870.4 15110.8 13772.2L14787.1 12937.1L14304.1 11699.4C14213.3 11466.6 14117.5 11222.1 14018.3 10968.9C13993.7 10905.4 13968.5 10841.6 13943.2 10777C13918.7 10709.1 13877 10648.7 13822.2 10601.7C13766 10554.3 13698 10523.1 13625.4 10511.2C13552.8 10499.3 13478.4 10507.2 13410 10534C13341.5 10560.9 13281.6 10605.7 13236.5 10663.8C13191.4 10721.9 13162.8 10791 13153.8 10864C13145.3 10935.5 13155.4 11008 13183.2 11074.4L13258.3 11267.7C13357.9 11520.6 13454 11765 13545.2 11997.5C13728.2 12461.9 13893.4 12881 14032 13231.7L14362 14064.7L14452.8 14290.5C14463 14315.8 14471.1 14335.1 14477 14349.1C14479.5 14356.2 14482.5 14363.1 14485.8 14369.8V14369.8Z" fill="#263238"/>
<path d="M14399.5 11992.6C14402.3 12001.7 14577 11932.7 14789.9 11839C15002.7 11745.4 15172.8 11661.6 15170 11652.8C15167.2 11644 14992.2 11712.4 14779.7 11806.4C14567.2 11900.4 14396.7 11983.5 14399.5 11992.6Z" fill="#263238"/>
<path d="M13217.6 8400.56L13061.5 8091.92C13044 8057.44 13014.8 8030.32 12979.1 8015.46L12733.6 7913.06L12072.1 7015.91L12009.7 7702.97L12430.6 8137.52C12430.6 8137.52 12694.7 8693.76 12910.4 8665.35C12905 8615.23 12890.3 8566.56 12866.9 8521.9C12796.7 8400.56 12871.4 8400.56 12881.2 8401.26H13061.9L13217.6 8400.56Z" fill="#FFBE9D"/>
<path d="M12137.7 7926.03C12157.7 7955.84 12321.1 8177.5 12321.1 8177.5L12784.4 7840.46L12616.1 7675.97L12137.7 7926.03Z" fill="#FF725E"/>
<path d="M12868.3 8521.9C12868.3 8521.9 12988.9 8592.05 13004 8648.86V8683.94L12859.5 8662.89L12868.3 8521.9Z" fill="#FFBE9D"/>
<path d="M13030 8587.84C13008.6 8571.11 12991.9 8549.12 12981.6 8524.01C12976.9 8511.34 12977.1 8497.4 12982.2 8484.89C12987.2 8472.38 12996.8 8462.19 13008.9 8456.32C13033.8 8447.9 13059.4 8465.79 13079.1 8483.68C13103.7 8505.75 13127.1 8529.17 13149.2 8553.82C13159.6 8562.79 13167.8 8574.11 13173.1 8586.85C13178.3 8599.59 13180.5 8613.39 13179.4 8627.12C13176.1 8637.78 13169.7 8647.17 13160.9 8654.02C13152.1 8660.86 13141.4 8664.82 13130.3 8665.35C13119.1 8665.59 13107.9 8663.54 13097.6 8659.31C13087.2 8655.09 13077.8 8648.79 13069.9 8640.8C13054.3 8625.05 13041.8 8606.49 13033.1 8586.09" fill="#FFBE9D"/>
<path d="M13152.4 8577.32C13131 8560.59 13114.3 8538.6 13104 8513.49C13099.3 8500.82 13099.5 8486.88 13104.6 8474.37C13109.6 8461.86 13119.2 8451.67 13131.3 8445.8C13156.2 8437.38 13181.8 8455.27 13201.5 8473.15C13226.1 8495.23 13249.5 8518.65 13271.6 8543.3C13282.1 8552.27 13290.2 8563.59 13295.5 8576.33C13300.7 8589.07 13302.9 8602.87 13301.8 8616.6C13298.5 8627.26 13292.1 8636.65 13283.3 8643.49C13274.5 8650.34 13263.8 8654.3 13252.7 8654.83C13241.5 8655.05 13230.3 8652.98 13220 8648.76C13209.6 8644.54 13200.2 8638.25 13192.3 8630.28C13176.7 8614.53 13164.2 8595.97 13155.5 8575.56" fill="#FFBE9D"/>
<path d="M12784.4 8050.54C12784.4 8046.33 12815.7 8047.73 12851.8 8078.94C12868.6 8099.46 12882.6 8122.11 12893.5 8146.28C12909.9 8175.63 12918.1 8208.8 12917.4 8242.38C12912.3 8275.4 12899.3 8306.7 12879.5 8333.57C12866.1 8355.19 12856.4 8378.89 12850.7 8403.71C12845.6 8426.72 12844 8450.36 12845.8 8473.86C12839.7 8462.89 12835.9 8450.81 12834.6 8438.34C12833.3 8425.87 12834.5 8413.26 12838.1 8401.26C12842.3 8374.66 12851.5 8349.08 12865.1 8325.85C12882.9 8300.76 12894.9 8272 12900.2 8241.68C12900.6 8211.2 12893.5 8181.09 12879.5 8154C12870.3 8130.69 12858.5 8108.46 12844.4 8087.71C12832.4 8075.77 12818.7 8065.62 12803.7 8057.55C12797.4 8054.85 12791 8052.51 12784.4 8050.54Z" fill="#EB996E"/>
<path d="M7793.35 4884.94L7301.64 6456.87L8748.01 7967.42L10073.4 7623.01L7793.35 4884.94Z" fill="#F5F5F5"/>
<path d="M7793 4884.59L7804.22 4897.56L7837.54 4936.84L7966.61 5090.46L8447.44 5663.89L10080.7 7617.4L10089.9 7628.27L10076.2 7631.78L9329.15 7826.08L8750.82 7976.18H8745.55L8742.05 7972.33L7296.38 6462.83L7293.57 6459.67V6455.81C7445.79 5974.27 7570.64 5581.12 7657.27 5307.56C7700.06 5172.18 7733.73 5066.61 7756.88 4994.36L7782.83 4913C7788.79 4895.11 7791.6 4885.99 7791.6 4885.99C7774.76 4941.05 7601.86 5503.26 7307.25 6460.02L7305.5 6453.01L8752.92 7961.1L8744.15 7958.65L9322.49 7808.19L10069.5 7613.89L10065 7628.62L8446.39 5675.81L7967.31 5097.12L7838.24 4940.35L7803.17 4899.67L7793 4884.59Z" fill="#263238"/>
<path d="M7838.24 5921.67C7856.61 5893.12 7880.55 5868.58 7908.63 5849.5C7936.71 5830.43 7968.35 5817.22 8001.65 5810.67C8034.96 5804.12 8069.25 5804.37 8102.46 5811.39C8135.67 5818.4 8167.12 5832.06 8194.93 5851.52C8285.41 5921.67 8327.15 6053.89 8435.87 6088.96C8514.43 6114.21 8601.06 6077.39 8681.37 6091.77C8776.42 6108.95 8847.26 6196.98 8874.62 6288.17C8901.98 6379.36 8894.61 6480.01 8886.9 6576.46L8416.58 6582.77L7838.24 5921.67Z" fill="#E0E0E0"/>
<path d="M6968.46 5028.38L10016.2 8169.08L8774.31 8043.17L7037.2 6209.26L6968.46 5028.38Z" fill="#F5F5F5"/>
<path d="M6968.81 5028.38C6971.61 5074.33 6996.87 5478.36 7043.16 6208.91V6205.05C7487.52 6672.91 8095.32 7312.27 8782.38 8037.21L8776.77 8034.4L9729.68 8130.5L10018.7 8159.96L10011.3 8175.39C8316.62 6421.79 7037.55 5098.18 6970.56 5028.38L10024.3 8162.77L10041.8 8180.65L10016.9 8178.2L9727.57 8148.74L8775.02 8051.94H8771.86L8769.4 8049.84C8083.4 7323.49 7477.35 6682.03 7034.39 6213.82V6211.71C6992.31 5478.71 6970.91 5074.33 6968.81 5028.38Z" fill="#263238"/>
<path d="M8161.26 6276.6C8067.26 6384.97 8080.94 6557.17 8161.26 6676.77C8241.57 6796.36 8374.14 6868.61 8508.12 6920.17C8616.49 6961.9 8750.11 6988.21 8839.9 6914.56" fill="#E0E0E0"/>
<path d="M8002.73 6105.79C8008.34 6132.1 7975.38 6151.74 7948.72 6149.28C7922.07 6146.83 7897.52 6131.75 7870.51 6130.34C7797.21 6126.14 7757.23 6213.11 7697.6 6255.55C7661.65 6279.04 7617.95 6287.6 7575.79 6279.42C7533.62 6271.24 7496.3 6246.95 7471.74 6211.71C7431.76 6149.63 7432.81 6057.75 7369.68 6019.52C7332.5 6001.35 7289.94 5997.48 7250.09 6008.65C7210.63 6019.62 7169.61 6023.89 7128.74 6021.27C7108.36 6019.39 7089.26 6010.55 7074.63 5996.25C7060.01 5981.94 7050.75 5963.04 7048.42 5942.71L7026.33 5907.64L6974.42 5040.66L8002.73 6105.79Z" fill="#E0E0E0"/>
<path d="M9488.03 8105.6C9503.67 8109.57 9519.95 8110.29 9535.88 8107.73C9551.81 8105.16 9567.04 8099.37 9580.64 8090.69C9594.25 8082.02 9605.93 8070.65 9614.97 8057.29C9624.02 8043.93 9630.23 8028.86 9633.23 8013.01C9637.13 7978.21 9627.56 7943.23 9606.5 7915.26C9585.44 7887.28 9554.47 7868.42 9519.95 7862.55C9457.87 7854.48 9393.69 7890.61 9334.06 7872.02C9266.02 7850.63 9237.97 7771.71 9220.78 7702.62C9203.6 7633.53 9179.4 7554.62 9113.46 7527.26C9004.39 7483.07 8889.35 7623.01 8775.37 7592.15C8690.84 7569.35 8658.23 7467.64 8591.94 7410.47C8565.11 7387.75 8532.91 7372.27 8498.41 7365.52C8463.91 7358.76 8428.25 7360.96 8394.83 7371.89C8364.49 7379.31 8336.96 7395.4 8315.6 7418.19C8294.24 7440.98 8279.97 7469.5 8274.54 7500.26L8777.82 8030.9L9488.03 8105.6Z" fill="#E0E0E0"/>
<path d="M8654.72 13413.4L8529.51 14135.2C8529.51 14135.2 7753.72 14250.2 7717.6 14380.7L9108.55 14673.9L9349.85 13557.2L8654.72 13413.4Z" fill="#FF725E"/>
<g opacity="0.6">
<path opacity="0.6" d="M8972.47 14165.7C8984.98 14172.6 8994.52 14183.8 8999.24 14197.3C9003.97 14210.7 9003.55 14225.5 8998.07 14238.6C8991.65 14251.4 8980.57 14261.2 8967.13 14266C8953.68 14270.9 8938.9 14270.3 8925.83 14264.6C8912.56 14257.3 8902.48 14245.3 8897.55 14231C8892.62 14216.7 8893.2 14201 8899.17 14187.1C8907.26 14174.5 8919.93 14165.5 8934.52 14162C8949.11 14158.5 8964.48 14160.9 8977.38 14168.5" fill="white"/>
</g>
<path opacity="0.6" d="M9108.55 14674.6L9133.8 14564.5L7788.44 14323.9C7788.44 14323.9 7721.1 14337.9 7718.3 14382.8L9108.55 14674.6Z" fill="white"/>
<path d="M8508.47 14123.3C8508.47 14130.3 8540.74 14140.4 8569.5 14169.2C8598.25 14198 8610.18 14230.6 8616.84 14229.2C8623.51 14227.8 8621.75 14186.4 8586.33 14152C8550.91 14117.6 8508.47 14116.9 8508.47 14123.3Z" fill="#263238"/>
<path d="M8349.94 14153.1C8347.14 14159.4 8374.14 14176.9 8390.98 14210.6C8407.81 14244.3 8408.16 14275.8 8415.18 14277.2C8422.19 14278.6 8434.47 14242.1 8412.37 14199.4C8390.27 14156.6 8351.34 14146.4 8349.94 14153.1Z" fill="#263238"/>
<path d="M8230.35 14310.2C8236.31 14313 8252.79 14281.1 8243.32 14240C8233.85 14199 8205.1 14177.6 8200.89 14182.9C8196.68 14188.1 8212.11 14212 8219.83 14245.7C8227.54 14279.3 8223.68 14308.1 8230.35 14310.2Z" fill="#263238"/>
<path d="M8555.47 13961.9C8555.47 13968.9 8590.54 13966.1 8628.06 13976.7C8665.59 13987.2 8692.95 14005.8 8698.21 14000.9C8703.47 13995.9 8679.27 13965.8 8634.73 13953.5C8590.19 13941.2 8553.01 13956 8555.47 13961.9Z" fill="#263238"/>
<path opacity="0.3" d="M8630.17 13556.5L8607.72 13684.9L9292.68 13822.7L9317.93 13708L8630.17 13556.5Z" fill="black"/>
<path d="M8583.17 13816.7C8604.85 13827.7 8629.07 13832.6 8653.31 13831.1C8679.46 13832.1 8705.63 13829.8 8731.17 13824.1C8746.14 13820.8 8760.9 13816.5 8775.37 13811.5C8784.13 13808.8 8792.41 13804.8 8799.92 13799.5C8805.29 13795.7 8809.26 13790.1 8811.22 13783.8C8813.18 13777.5 8813.03 13770.7 8810.79 13764.5C8808.31 13759 8804.62 13754.3 8799.99 13750.5C8795.37 13746.7 8789.95 13744.1 8784.13 13742.7C8775.39 13740.8 8766.4 13740.2 8757.48 13741C8715.26 13742.2 8674.07 13754.3 8637.88 13776C8599.3 13799.2 8582.82 13822 8584.93 13824.1C8587.03 13826.2 8607.72 13809 8645.6 13791.1C8680.83 13774.9 8719.03 13766 8757.83 13765.2C8773.26 13765.2 8785.89 13766.9 8788.34 13774.3C8790.8 13781.7 8788.34 13778.1 8785.19 13782C8779.59 13785.6 8773.58 13788.6 8767.3 13790.8C8753.73 13795.8 8739.92 13800.1 8725.91 13803.7C8702.03 13810 8677.6 13814 8652.96 13815.7C8629.7 13814.4 8606.38 13814.8 8583.17 13816.7V13816.7Z" fill="#263238"/>
<path d="M8590.19 13827.9C8592.29 13829.7 8610.88 13808.3 8622.8 13764.8C8629.23 13739.3 8631.36 13712.8 8629.12 13686.6C8628 13670.9 8625.06 13655.4 8620.35 13640.3C8618.52 13630.4 8614.18 13621 8607.73 13613.2C8601.29 13605.5 8592.95 13599.4 8583.52 13595.8C8577.28 13594.8 8570.89 13595.5 8565.03 13597.9C8559.17 13600.2 8554.04 13604.1 8550.2 13609.1C8544.92 13616.6 8540.67 13624.7 8537.58 13633.3C8531.88 13648.2 8528.56 13664 8527.76 13679.9C8526.11 13706.9 8531.05 13733.9 8542.14 13758.5C8561.78 13800.2 8588.43 13814.3 8589.49 13812.2C8590.54 13810.1 8571.6 13791.1 8558.27 13751.8C8550.35 13729.4 8547.48 13705.4 8549.85 13681.7C8551.34 13668 8554.64 13654.5 8559.67 13641.7C8564.93 13627.7 8573 13616.8 8578.26 13619.6C8583.52 13622.4 8594.75 13634.4 8597.9 13647.3C8602.38 13660.5 8605.66 13673.9 8607.72 13687.7C8611.11 13711.7 8611.11 13736.2 8607.72 13760.3C8599.31 13802.7 8586.68 13827.9 8590.19 13827.9Z" fill="#263238"/>
<path d="M13225.3 13457.2L12924.7 13064.4L12909 13044.1L12395.5 13425.3L12870 13946.5L12852.8 14474.3C12588.4 14542.4 12548.8 14674.6 12548.8 14674.6H13098L13597.1 13713.6L13225.3 13457.2Z" fill="#FF725E"/>
<path opacity="0.6" d="M13598.1 13712.9L13099 14673.9L12549.8 14674.6L12611.5 14591.8L13058.4 14566.9L13518.9 13658.6L13598.1 13712.9Z" fill="white"/>
<path d="M12857 14232.3C12861.3 14237.9 12892.1 14220.1 12935.3 14221.1C12978.4 14222.2 13008.9 14240 13013.1 14234.4C13017.3 14228.8 12987.5 14199.4 12935.6 14196.9C12883.7 14194.5 12851.4 14228.1 12857 14232.3Z" fill="#263238"/>
<path d="M12865.8 14101.5C12871.4 14105.4 12895.6 14073.1 12939.5 14064.3C12983.3 14055.6 13018.4 14075.9 13021.9 14070.3C13025.4 14064.7 13017.7 14058.4 13002.2 14050C12981.4 14039.7 12957.8 14036.6 12935 14041.1C12912.2 14045.7 12891.6 14057.7 12876.3 14075.2C12865.5 14089.2 12863 14100.1 12865.8 14101.5Z" fill="#263238"/>
<path d="M12862.3 13933.2C12868.3 13936.3 12886.9 13904.4 12925.1 13891.1C12963.3 13877.8 12997.7 13891.1 13000.5 13884.1C13003.3 13877 12995.2 13873.9 12979.8 13868.3C12959.5 13861 12937.3 13861 12917 13868.3C12896.9 13875.6 12879.7 13889.4 12868.3 13907.6C12859.9 13921.9 12859.2 13933.2 12862.3 13933.2Z" fill="#263238"/>
<path d="M12715 13803.4C12721.7 13805.5 12737.1 13774.3 12771.1 13752.2C12805.1 13730.1 12839.2 13726.9 12841.3 13719.9C12843.4 13712.9 12800.2 13704.1 12759.2 13732.2C12718.2 13760.3 12708.3 13802.7 12715 13803.4Z" fill="#263238"/>
<path d="M12643.5 13690.5C12646.3 13692.2 12664.1 13670.1 12691.2 13632.9L12737.8 13567C12748.3 13553.4 12756.8 13538.4 12763.1 13522.5C12764.9 13516.7 12765.6 13510.6 12765.1 13504.6C12764.5 13498.6 12762.8 13492.7 12759.9 13487.4C12756.5 13481.7 12751.6 13477 12745.7 13474C12739.8 13470.9 12733.2 13469.6 12726.6 13470.2C12707.3 13473.9 12689.5 13483.2 12675.4 13496.9C12661.9 13507.7 12650.1 13520.5 12640.3 13534.7C12624.7 13558.7 12614.9 13586 12611.5 13614.4C12605.8 13639.9 12610.2 13666.7 12623.8 13689.1C12624 13664.9 12625.5 13640.8 12628.4 13616.8C12633.6 13591.6 12643.9 13567.8 12658.5 13546.7C12667.2 13534.6 12677.3 13523.6 12688.7 13514.1C12699.5 13504.2 12712.5 13497.1 12726.6 13493.4C12728.7 13493.1 12730.8 13493.4 12732.6 13494.4C12734.5 13495.3 12736.1 13496.8 12737.1 13498.6C12738.9 13503.6 12738.9 13509.1 12737.1 13514.1C12731.4 13527.6 12724.3 13540.4 12715.7 13552.3C12701.7 13575.8 12687.6 13598.6 12673.6 13622.4C12660 13643.4 12649.8 13666.3 12643.5 13690.5Z" fill="#263238"/>
<path d="M12623.8 13706.9C12626.3 13706.9 12623.8 13677.8 12594.4 13644.9C12574.1 13623 12547.3 13608.3 12517.9 13602.9C12488.6 13597.6 12458.3 13602 12431.6 13615.4C12428.8 13617.9 12426.6 13620.9 12425.1 13624.3C12423.6 13627.7 12422.8 13631.3 12422.9 13635.1C12423.2 13641.4 12425.5 13647.6 12429.5 13652.6C12435.2 13659.2 12441.8 13665 12449.2 13669.8C12461.3 13678.4 12474.4 13685.9 12488.1 13691.9C12511 13702.4 12535.3 13709.2 12560.3 13712.2C12583.1 13717.1 12606.9 13714.9 12628.4 13705.9C12628.4 13702 12602.4 13703.8 12563.1 13695.4C12540.5 13690.4 12518.6 13682.5 12497.9 13671.9C12485.6 13665.7 12473.9 13658.6 12462.8 13650.5C12457.5 13647.1 12452.6 13643 12448.5 13638.2C12446 13633.3 12448.5 13634.7 12448.5 13633.3C12453.4 13630.3 12458.9 13628.2 12464.6 13627.3C12471.3 13625.9 12478.1 13624.9 12484.9 13624.2C12498 13623.3 12511.1 13624.3 12523.9 13627C12545.8 13632 12566.2 13642.3 12583.1 13657.1C12611.9 13683.1 12620 13708.4 12623.8 13706.9Z" fill="#263238"/>
<path opacity="0.6" d="M13159.7 13696.4C13159.7 13709.3 13163.5 13721.9 13170.7 13732.7C13177.9 13743.4 13188.1 13751.8 13200 13756.7C13211.9 13761.6 13225 13762.9 13237.7 13760.4C13250.3 13757.9 13262 13751.7 13271.1 13742.6C13280.2 13733.4 13286.4 13721.8 13288.9 13709.2C13291.5 13696.5 13290.2 13683.4 13285.2 13671.5C13280.3 13659.5 13271.9 13649.4 13261.2 13642.2C13250.5 13635 13237.9 13631.2 13225 13631.2C13207.7 13631.2 13191.1 13638.1 13178.8 13650.3C13166.6 13662.5 13159.7 13679.1 13159.7 13696.4Z" fill="white"/>
<path opacity="0.3" d="M12444.2 13477.6L12549.8 13593.7L12993.5 13154.2L12931.8 13073.9L12444.2 13477.6Z" fill="black"/>
<path d="M11078.5 4330.8C11372 4228.81 11688.9 4214.43 11990.4 4289.42C12124 4322.73 12259.8 4378.15 12345.3 4486.17C12446.7 4613.83 12459.3 4787.79 12475.1 4950.17C12506.8 5280.47 12567.6 5607.32 12656.8 5926.93C12731.1 6192.77 12825.1 6453.01 12865.5 6727.62C12905.8 7002.23 12887.2 7292.98 12748 7531.47C12533.3 7899.03 12077 8061.41 11651.6 8068.77C11427.9 8072.28 11198.5 8039.66 11000 7935.85C10801.5 7832.04 10636.3 7650.72 10587.9 7432.22" fill="#FF725E"/>
<g opacity="0.5">
<path opacity="0.5" d="M11078.5 4330.8C11372 4228.81 11688.9 4214.43 11990.4 4289.42C12124 4322.73 12259.8 4378.15 12345.3 4486.17C12446.7 4613.83 12459.3 4787.79 12475.1 4950.17C12506.8 5280.47 12567.6 5607.32 12656.8 5926.93C12731.1 6192.77 12825.1 6453.01 12865.5 6727.62C12905.8 7002.23 12887.2 7292.98 12748 7531.47C12533.3 7899.03 12077 8061.41 11651.6 8068.77C11427.9 8072.28 11198.5 8039.66 11000 7935.85C10801.5 7832.04 10636.3 7650.72 10587.9 7432.22" fill="black"/>
</g>
<path d="M11663.5 4667.49C11709.6 4707.74 11750.5 4753.57 11785.2 4803.92C11821.4 4859.81 11853 4918.44 11879.9 4979.28C11912.9 5054.84 11950.8 5128.17 11993.2 5198.83C12036.9 5270.43 12097 5330.55 12168.6 5374.19C12228.4 5409.96 12298.9 5423.73 12367.8 5413.12C12414 5406.52 12457.2 5386.66 12492.3 5355.96C12501.6 5347.54 12509.9 5338 12516.8 5327.55C12521.8 5320.53 12523.9 5316.67 12523.2 5316.32C12522.5 5315.97 12511.2 5329.65 12488.1 5348.94C12452.9 5375.68 12411 5392.4 12367.1 5397.34C12302 5405.08 12236.2 5390.49 12180.5 5355.96C12112.3 5312.95 12055.1 5254.73 12013.2 5185.86C11971.3 5115.96 11933.5 5043.71 11899.9 4969.46C11871.6 4908.14 11838 4849.46 11799.3 4794.1C11773 4756.6 11741.7 4722.85 11706.3 4693.8C11693.7 4682.64 11679.2 4673.74 11663.5 4667.49V4667.49Z" fill="#E0E0E0"/>
<path d="M12279.8 7952.69C12280.7 7943.47 12280.7 7934.19 12279.8 7924.98C12279.8 7904.64 12279.8 7878.68 12279.8 7846.42C12279.8 7778.38 12274.8 7679.48 12269.6 7557.78C12258.7 7312.27 12239.8 6976.98 12210.3 6605.92C12180.9 6234.86 12147.5 5898.87 12120.2 5656.52C12106.2 5535.17 12094.2 5436.97 12085.1 5369.63C12080.9 5337.72 12077 5311.76 12074.2 5291.77C12073.4 5282.62 12071.6 5273.58 12069 5264.77C12067.9 5273.85 12067.9 5283.04 12069 5292.12C12070.7 5312.47 12073.2 5338.42 12075.6 5370.33C12082.7 5440.48 12092.1 5538.68 12103.3 5657.93C12126.8 5900.97 12158.1 6236.61 12187.2 6607.67C12216.3 6978.74 12238 7315.08 12252.8 7558.48C12260.1 7678.07 12266.1 7775.92 12270.3 7846.77L12275.9 7925.33C12276.4 7934.54 12277.7 7943.7 12279.8 7952.69Z" fill="#E0E0E0"/>
<path d="M12192.4 6462.83C12192.4 6468.79 12326.8 6467.39 12490.9 6446.69C12655 6426 12785.5 6395.14 12784.4 6389.53C12783.4 6383.92 12651.5 6404.26 12488.1 6424.6C12324.7 6444.94 12192.1 6455.11 12192.4 6462.83Z" fill="#E0E0E0"/>
<path d="M12300.8 6458.27C12290.1 6477.96 12283.9 6499.75 12282.6 6522.1C12278.5 6545.88 12276.1 6569.89 12275.2 6594C12274 6609.71 12276.6 6625.48 12282.9 6639.94C12286.8 6648.74 12293.2 6656.24 12301.2 6661.58C12309.2 6666.92 12318.5 6669.87 12328.2 6670.1C12333.6 6670.34 12339.1 6669.28 12344.1 6667.03C12349.1 6664.78 12353.5 6661.39 12356.9 6657.13C12363 6649.51 12366.5 6640.2 12367.1 6630.47C12367.6 6615.26 12365.4 6600.07 12360.8 6585.58C12354.9 6561.54 12346.9 6538.07 12336.9 6515.44C12319.7 6477.91 12303.6 6457.92 12301.9 6459.32C12306.8 6480.66 12313.9 6501.45 12322.9 6521.4C12330.3 6543.5 12336.5 6565.98 12341.5 6588.74C12344.7 6601.21 12346.1 6614.09 12345.7 6626.96C12345.7 6638.89 12338.7 6646.25 12328.9 6646.25C12305.4 6646.25 12295.9 6617.85 12296.9 6592.59C12298 6567.34 12296.9 6542.44 12299.1 6522.45C12302.3 6501.21 12302.9 6479.65 12300.8 6458.27V6458.27Z" fill="#E0E0E0"/>
<path d="M10789.3 4457.75L12198.3 4293.22C12382.8 4271.67 12515 4104.64 12493.4 3920.14L12462.9 3658.53C12441.3 3474.02 12274.3 3341.92 12089.8 3363.46L10680.7 3527.99C10496.2 3549.54 10364.1 3716.57 10385.6 3901.07L10416.2 4162.69C10437.7 4347.19 10604.8 4479.29 10789.3 4457.75Z" fill="#455A64"/>
<path d="M12066.2 3385.96C12066.2 3385.96 12062 3383.15 12052.8 3380.35C12039.4 3376.5 12025.5 3374.38 12011.5 3374.04C11959.1 3374.25 11908.2 3391.9 11867 3424.19C11803.8 3468.65 11753.7 3529.19 11721.8 3599.55C11686.1 3686.54 11672.4 3780.97 11681.8 3874.51C11686.9 3968.89 11720 4059.61 11776.8 4135.1C11823.5 4196.75 11887.7 4242.93 11961 4267.67C12009.7 4284.47 12061.6 4290.22 12112.8 4284.5C12126.7 4282.97 12140.5 4280.15 12153.9 4276.09C12163 4273.28 12167.5 4271.53 12167.2 4270.83C12166.8 4270.13 12147.5 4273.63 12112.1 4275.74C12062.4 4277.9 12012.8 4270.02 11966.2 4252.59C11897.1 4227.06 11837 4181.82 11793.3 4122.47C11740.2 4049.59 11709.3 3962.84 11704.6 3872.76C11694.9 3782.96 11707 3692.16 11739.7 3607.97C11769.6 3540.58 11816.3 3482.01 11875.4 3437.87C11913.6 3406.29 11960.6 3387.41 12010.1 3383.86C12046.5 3381.4 12065.8 3388.06 12066.2 3385.96Z" fill="#263238"/>
<path d="M11260.9 3457.16L11478.4 3435.76C11420.2 3453.54 11370.4 3491.63 11338.1 3543.08C11306.6 3594.24 11286.2 3651.5 11278.5 3711.08C11239.5 3961.14 11372.4 4229.79 11586 4365.17L11410.7 4388.32C11410.7 4388.32 10909.1 3940.45 11259.5 3457.16" fill="#263238"/>
<path d="M11014.7 3917.3C11070.8 3932.81 11129.6 3934.99 11186.7 3923.65C11243.7 3912.32 11297.3 3887.79 11343.1 3852.03C11389 3816.27 11425.8 3770.28 11450.7 3717.72C11475.6 3665.17 11487.8 3607.52 11486.4 3549.4C11484 3441.72 11434.9 3331.6 11468.5 3228.84C11491.7 3158.69 11550.6 3103.28 11570.6 3032.08C11600.1 2925.11 11535.5 2817.44 11474.2 2725.55C11437.6 2664.5 11392.1 2609.29 11339.1 2561.77C11312.5 2538.09 11280.9 2520.58 11246.8 2510.45C11212.6 2500.33 11176.6 2497.86 11141.3 2503.2" fill="#263238"/>
<path d="M10018.7 2512.67C10024.6 2594.03 9970.97 2666.98 9916.61 2728.01C9862.25 2789.03 9802.27 2853.22 9790.35 2933.88C9769.66 3077.33 9909.95 3210.25 9881.19 3352.29C9865.4 3428.4 9803.33 3489.42 9792.1 3566.23C9780.88 3643.04 9821.21 3713.53 9870.67 3770C9920.12 3826.46 9980.09 3875.21 10023.9 3934.84C10065.6 4002.24 10100.8 4073.4 10129.1 4147.37C10157.5 4221.89 10209 4285.34 10276.1 4328.35C10381.3 4385.16 10527.2 4358.51 10607.2 4446.54C10687.1 4534.57 10779.7 4544.74 10875.1 4608.92" fill="#263238"/>
<path d="M11273.2 2637.17C11275.3 2563.52 11206.9 2506.35 11138.2 2479.35C11069.4 2452.34 10992.6 2441.82 10931.2 2400.44C10876.9 2365.36 10840.4 2307.14 10794.5 2260.15C10737.6 2202.85 10666.6 2161.66 10588.7 2140.78C10510.8 2119.9 10428.7 2120.08 10350.8 2141.3C10273 2162.52 10202.1 2204.02 10145.6 2261.56C10089 2319.1 10048.7 2390.62 10028.8 2468.83C10002.5 2574.04 10020.4 2698.55 10103.5 2768.69C10200 2849.71 10342.7 2831.82 10466.2 2806.57C10589.6 2781.32 10729.2 2756.42 10832.3 2829.02C10894.4 2872.51 10929.8 2943.7 10968.1 3009.64C11006.3 3075.57 11053.6 3142.56 11125.5 3167.11C11197.4 3191.66 11294.9 3149.22 11297.7 3073.47" fill="#263238"/>
<path d="M10980.3 2652.61C11011.1 2655.86 11039.5 2670.58 11060 2693.85C11080.4 2717.12 11091.3 2747.22 11090.5 2778.16L11016.8 4448.99C11013.7 4646.45 10725.4 4757.28 10513.9 4752.37C10300.6 4747.46 10293.6 4642.59 10291.2 4454.96C10286.6 4141.41 10287 4023.57 10287 4025.32C10287 4027.08 10017.3 3980.08 9962.2 3628.31C9934.85 3452.95 9944.32 3166.41 9959.75 2932.13C9973.43 2721.7 10113.7 2462.51 10324.1 2484.96L10980.3 2652.61Z" fill="#FFBE9D"/>
<path d="M10026.4 3133.09C10026.2 3144.88 10030.7 3156.27 10038.8 3164.8C10046.9 3173.33 10058.1 3178.32 10069.9 3178.69C10075.6 3179.06 10081.3 3178.31 10086.7 3176.47C10092.1 3174.62 10097.1 3171.72 10101.3 3167.94C10105.6 3164.15 10109.1 3159.56 10111.6 3154.42C10114.1 3149.28 10115.5 3143.7 10115.8 3138C10116 3126.27 10111.6 3114.93 10103.5 3106.41C10095.5 3097.89 10084.4 3092.86 10072.7 3092.41C10067 3091.98 10061.2 3092.7 10055.8 3094.52C10050.3 3096.34 10045.3 3099.23 10041 3103.02C10036.7 3106.81 10033.2 3111.42 10030.7 3116.58C10028.1 3121.75 10026.7 3127.36 10026.4 3133.09V3133.09Z" fill="#263238"/>
<path d="M10021.5 3081.18C10027.1 3087.15 10061.5 3061.89 10109.9 3062.25C10158.3 3062.6 10194 3086.8 10199.3 3080.83C10204.6 3074.87 10196.1 3067.51 10180.7 3056.28C10160.1 3042.08 10135.6 3034.39 10110.6 3034.19C10085.4 3034.13 10060.9 3041.98 10040.4 3056.63C10023.9 3068.21 10018.7 3078.73 10021.5 3081.18Z" fill="#263238"/>
<path d="M10509.7 3145.37C10509.5 3157.15 10513.9 3168.54 10522.1 3177.07C10530.2 3185.61 10541.4 3190.59 10553.2 3190.96C10558.9 3191.44 10564.6 3190.77 10570.1 3188.98C10575.5 3187.2 10580.5 3184.34 10584.8 3180.58C10589.2 3176.82 10592.7 3172.23 10595.2 3167.09C10597.7 3161.94 10599.2 3156.34 10599.5 3150.63C10599.7 3138.86 10595.3 3127.49 10587.2 3118.91C10579.2 3110.33 10568.1 3105.23 10556.3 3104.68C10550.6 3104.25 10544.8 3104.97 10539.3 3106.79C10533.9 3108.61 10528.8 3111.49 10524.5 3115.28C10520.2 3119.06 10516.6 3123.67 10514.1 3128.83C10511.5 3134 10510 3139.62 10509.7 3145.37V3145.37Z" fill="#263238"/>
<path d="M10498.8 3091.35C10504.4 3097.32 10538.4 3072.07 10587.2 3072.42C10635.9 3072.77 10671 3096.97 10676.3 3091C10681.5 3085.04 10673.5 3077.68 10657.7 3066.45C10637.1 3052.01 10612.6 3044.29 10587.5 3044.36C10562.3 3044.05 10537.7 3051.93 10517.4 3066.8C10501.6 3078.03 10496 3088.9 10498.8 3091.35Z" fill="#263238"/>
<path d="M10321.7 3451.19C10296.1 3443.01 10269.6 3438.06 10242.8 3436.46C10230.5 3436.46 10218.9 3432.96 10216.8 3424.54C10215.6 3411.72 10218.4 3398.83 10224.9 3387.71L10262.1 3293.37C10296.1 3213.83 10323.7 3131.74 10344.8 3047.87C10339.2 3045.76 10293.3 3153.08 10242.4 3287.06C10229.8 3322.13 10218.2 3351.94 10207.4 3382.1C10199.4 3396.92 10197 3414.09 10200.7 3430.5C10202.5 3434.87 10205.3 3438.78 10208.8 3441.94C10212.3 3445.09 10216.5 3447.42 10221 3448.74C10227.9 3450.67 10235 3451.73 10242.1 3451.9C10268.6 3454.82 10295.3 3454.59 10321.7 3451.19V3451.19Z" fill="#263238"/>
<path d="M10287 4025.32C10452.4 4028.73 10615.6 3986.24 10758.3 3902.57C10758.3 3902.57 10641.9 4142.11 10291.2 4108.44L10287 4025.32Z" fill="#EB996E"/>
<path d="M10342 3567.98C10351.4 3556.44 10363.5 3547.44 10377.2 3541.8C10390.9 3536.16 10405.8 3534.07 10420.6 3535.72C10431.3 3536.78 10441.7 3539.97 10451.1 3545.09C10460.6 3550.21 10468.9 3557.16 10475.7 3565.53C10482.1 3573.65 10485.9 3583.56 10486.5 3593.91C10487.2 3604.26 10484.6 3614.56 10479.2 3623.4C10471.4 3632.04 10461.1 3638.17 10449.8 3640.98C10438.5 3643.79 10426.6 3643.16 10415.7 3639.18C10392.7 3631.07 10371.6 3618.43 10353.6 3602C10348.1 3598.21 10343.4 3593.31 10339.9 3587.62C10338 3585.03 10337 3581.9 10337 3578.68C10337 3575.46 10338 3572.33 10339.9 3569.74" fill="#EB996E"/>
<path d="M10464.4 3484.86C10456.7 3484.86 10456.4 3537.12 10411.1 3574.3C10365.9 3611.47 10309.8 3605.86 10309.4 3613.23C10309.1 3620.59 10322 3623.4 10344.5 3624.1C10375.4 3624.73 10405.5 3614.28 10429.4 3594.64C10452.5 3576.03 10467.4 3549.07 10470.7 3519.58C10473.9 3497.84 10466.5 3484.51 10464.4 3484.86Z" fill="#263238"/>
<path d="M10477.1 3006.48C10481.6 3019.46 10530.4 3013.5 10587.2 3020.51C10644 3027.52 10690.3 3042.96 10697.7 3031.38C10701.2 3025.42 10693.1 3013.14 10674.5 3000.17C10649.9 2984.28 10621.9 2974.43 10592.8 2971.41C10563.7 2967.9 10534.1 2971.27 10506.5 2981.23C10485.5 2990.7 10475 3000.17 10477.1 3006.48Z" fill="#263238"/>
<path d="M10039.7 2940.9C10048.1 2951.77 10081.8 2940.9 10121.8 2940.9C10161.8 2940.9 10196.1 2948.26 10203.9 2936.69C10207.4 2931.43 10202.1 2920.2 10187.4 2909.68C10167.4 2897.08 10144.1 2890.72 10120.5 2891.41C10096.9 2892.1 10074 2899.8 10054.8 2913.54C10040.8 2924.06 10035.9 2935.64 10039.7 2940.9Z" fill="#263238"/>
<path d="M11225.8 3809.63C11177.2 3819.43 11127 3817.51 11079.3 3804.05C11031.6 3790.59 10987.7 3765.96 10951.4 3732.21C10915.1 3698.46 10887.3 3656.55 10870.4 3609.94C10853.5 3563.33 10847.9 3513.37 10854.1 3464.17C10865.3 3377.89 10911.6 3288.81 10881.8 3208.15C10842.2 3100.12 10690.6 3067.86 10650.3 2959.13C10627.2 2896.36 10648.2 2823.05 10621.6 2761.68C10594.9 2700.3 10536 2670.49 10476.7 2649.1C10415.7 2633.37 10357.6 2608.16 10304.5 2574.39C10254.7 2535.81 10223.8 2462.87 10255.8 2408.85C10518.5 2440.16 10776.6 2502.8 11024.5 2595.44C11081.7 2616.83 11142 2642.78 11176 2693.64C11210.1 2744.49 11211.1 2817.44 11207.3 2882.33L11163.1 3829.27" fill="#263238"/>
<path d="M11415.2 4102.13C11415.1 4071.98 11408.9 4042.16 11397 4014.45C11382.5 3982.37 11362.1 3953.24 11337 3928.52C11303.3 3896.31 11265 3869.24 11223.4 3848.21C11177.4 3823.31 11124.5 3800.51 11070.5 3769.65C11011 3738.01 10960.8 3691.33 10924.9 3634.27C10906.1 3602.36 10896 3566.09 10895.5 3529.05C10897 3491.45 10902.3 3454.08 10911.2 3417.52C10921 3381.55 10923.5 3344 10918.6 3307.05C10914.8 3288.87 10907 3271.77 10895.8 3256.97C10884.6 3242.18 10870.2 3230.05 10853.7 3221.47C10818.7 3201.83 10783.6 3189.56 10746.8 3172.72C10709.1 3157.45 10677.2 3130.54 10655.9 3095.91C10638.2 3061.55 10629 3023.41 10629.3 2984.74C10629.3 2947.91 10629.3 2912.49 10629.3 2879.52C10630.1 2846.58 10625.4 2813.73 10615.2 2782.37C10605 2753.63 10586.5 2728.6 10561.9 2710.47C10514.4 2679.98 10461.4 2659.12 10405.9 2649.1C10358.8 2639.74 10313.9 2621.91 10273.3 2596.49C10242.6 2575.64 10220.2 2544.76 10209.8 2509.16C10202.7 2487.04 10202.7 2463.24 10209.8 2441.12C10212.5 2433.68 10216.6 2426.8 10221.7 2420.78C10221.7 2420.78 10217.9 2428.14 10213.3 2442.52C10207.4 2463.86 10208.1 2486.5 10215.4 2507.41C10226.4 2540.53 10248.3 2568.96 10277.5 2588.07C10317.7 2611.76 10361.7 2628.26 10407.6 2636.82C10465.1 2646.42 10520.2 2667.28 10569.6 2698.2C10596.7 2717.96 10617.4 2745.29 10628.9 2776.76C10639.8 2809.79 10645.1 2844.4 10644.7 2879.17C10644.7 2914.24 10644.7 2949.31 10644.7 2984.39C10644.6 3020.21 10653 3055.55 10669.3 3087.5C10688.8 3119.1 10717.9 3143.66 10752.4 3157.64C10787.4 3174.12 10825 3186.05 10861.1 3207.09C10879.2 3217.79 10895.4 3231.55 10908.8 3247.78C10921.7 3264.45 10930.4 3283.91 10934.4 3304.59C10939.7 3344 10937.1 3384.06 10926.7 3422.43C10917.8 3457.7 10912.5 3493.78 10910.9 3530.11C10911 3564.39 10920.2 3598.02 10937.6 3627.61C10971.7 3682.45 11019.4 3727.51 11076.1 3758.42C11128.7 3789.29 11181.3 3812.79 11227.6 3838.74C11269.9 3860.89 11308.6 3889.4 11342.3 3923.26C11367.7 3949.19 11387.8 3979.8 11401.6 4013.4C11410.2 4034.58 11414.8 4057.17 11415.2 4080.03C11415.7 4085.99 11415.7 4091.97 11415.2 4097.92C11415.9 4100.03 11415.6 4102.13 11415.2 4102.13Z" fill="#263238"/>
<path d="M10390.1 4343.43C10384.7 4346.11 10378.9 4347.89 10372.9 4348.69C10365.8 4350.42 10358.5 4351.6 10351.2 4352.19C10341.3 4353.68 10331.3 4354.38 10321.3 4354.3C10256.6 4354.36 10193.4 4334.53 10140.4 4297.48C10103.3 4272.4 10072.2 4239.47 10049.2 4201.03C10024.7 4156.2 10008.8 4107.2 10002.2 4056.54C9995.85 4002.55 9980.44 3950.02 9956.59 3901.17C9929.24 3852.42 9878.38 3820.15 9832.44 3778.42C9785.49 3737.72 9754.85 3681.41 9746.16 3619.89C9737.98 3562.72 9749.49 3504.47 9778.78 3454.7C9807.33 3414.15 9831.88 3370.93 9852.08 3325.64C9865.83 3285.18 9870.96 3242.29 9867.16 3199.73C9860.2 3137.39 9845.23 3076.21 9822.62 3017.7C9813.81 2996.28 9806.2 2974.39 9799.82 2952.12C9803.47 2956.94 9806.42 2962.26 9808.59 2967.9C9813.5 2978.77 9820.86 2994.56 9829.28 3015.25C9854.85 3073.67 9871.97 3135.43 9880.14 3198.68C9884.89 3243.22 9880.23 3288.27 9866.46 3330.9C9846.61 3377.29 9822.17 3421.59 9793.51 3463.12C9766.35 3509.68 9755.96 3564.14 9764.05 3617.44C9772.14 3674.81 9800.8 3727.28 9844.71 3765.09C9888.55 3805.07 9941.86 3838.74 9972.02 3892.05C9996.87 3942.69 10012.7 3997.29 10018.7 4053.38C10024.5 4102.41 10039.2 4149.95 10062.2 4193.67C10083.6 4230.71 10112.8 4262.66 10147.7 4287.31C10198.4 4324.07 10258.8 4344.94 10321.3 4347.28C10365.5 4348.34 10389.7 4341.32 10390.1 4343.43Z" fill="#263238"/>
<path d="M11413.5 2666.98C11416.9 2671.05 11419 2676.07 11419.4 2681.36C11420.2 2688.94 11419.4 2696.6 11417 2703.84C11414.7 2711.09 11410.8 2717.76 11405.8 2723.45C11398 2732.8 11388.4 2740.45 11377.5 2745.94C11366.6 2751.43 11354.8 2754.64 11342.6 2755.37C11311.3 2753.45 11280.8 2744.33 11253.6 2728.71C11222.1 2711.14 11187.1 2700.83 11151.1 2698.55C11109.3 2697.45 11067.6 2701.21 11026.6 2709.77C10980.5 2719.77 10933.5 2725.75 10886.4 2727.66C10833.3 2729.76 10781.5 2710.86 10742.2 2675.05C10707 2637.71 10678.9 2594.19 10659.4 2546.69C10641.5 2504.11 10618.9 2463.65 10592.1 2426.04C10569.2 2395.27 10537.8 2371.84 10501.8 2358.64C10465.8 2345.43 10426.7 2343.01 10389.4 2351.69C10338.5 2365.22 10294.7 2397.72 10267 2442.52C10257.2 2459.26 10248.6 2476.6 10241 2494.43C10241 2494.43 10241 2489.17 10243.8 2479.35C10247.7 2465.12 10253.3 2451.45 10260.7 2438.67C10283 2397.35 10319 2365.08 10362.5 2347.36C10406 2329.64 10454.3 2327.57 10499.2 2341.52C10541.1 2354.6 10577.9 2380.47 10604.4 2415.52C10632.3 2453.94 10655.8 2495.35 10674.5 2538.97C10693.3 2584.33 10720.2 2625.92 10753.8 2661.72C10789.5 2694.53 10836.8 2711.82 10885.3 2709.77C10931.5 2707.99 10977.5 2702.36 11022.8 2692.94C11065 2684.56 11108.1 2681.26 11151.1 2683.12C11188.9 2686.85 11225.4 2698.82 11258.1 2718.19C11283.5 2733.6 11312 2743.18 11341.6 2746.25C11352.5 2745.91 11363.2 2743.41 11373.2 2738.9C11383.1 2734.38 11392 2727.94 11399.5 2719.94C11404.3 2715.07 11408.2 2709.27 11410.8 2702.88C11413.3 2696.5 11414.6 2689.66 11414.5 2682.77C11413.5 2671.89 11410.7 2667.33 11413.5 2666.98Z" fill="#455A64"/>
<path d="M11214.6 2565.63C11156.6 2552.31 11105 2519.34 11068.5 2472.32C11032 2425.3 11012.8 2367.11 11014.3 2307.6C11015.8 2248.09 11037.8 2190.93 11076.6 2145.78C11115.4 2100.64 11168.6 2070.3 11227.3 2059.89C11254.9 2053.09 11284 2054.01 11311.2 2062.54C11338.4 2071.07 11362.7 2086.89 11381.6 2108.29C11413.8 2152.13 11411.7 2217.71 11451.7 2253.49C11491.7 2289.26 11563.2 2275.23 11620.1 2288.56C11663.6 2300.98 11701.3 2328.45 11726.5 2366.09C11751.7 2403.73 11762.7 2449.09 11757.5 2494.08C11750.4 2538.8 11731.6 2580.87 11703.1 2616.07C11674.6 2651.27 11637.4 2678.38 11595.2 2694.69C11509.6 2725.92 11416 2727.65 11329.3 2699.6C11243.4 2671.73 11161.7 2632.07 11086.6 2581.76" fill="#263238"/>
<path d="M11637.2 2311.35C11633.9 2334.58 11625.1 2356.69 11611.6 2375.89C11582.4 2424.57 11542 2465.57 11493.8 2495.48C11445.6 2525.59 11390.9 2543.85 11334.2 2548.79C11310.7 2552.42 11286.7 2550.62 11264.1 2543.53C11264.1 2540.37 11290.7 2543.53 11331.8 2535.81C11385.4 2527.67 11436.8 2508.69 11482.9 2480.05C11528.9 2451.15 11568.6 2413.35 11599.7 2368.87C11623.9 2334.85 11634.4 2310.3 11637.2 2311.35Z" fill="#455A64"/>
<path d="M11451.4 2700.3C11406.2 2640.75 11349.5 2590.88 11284.7 2553.65C11219.8 2516.42 11148.2 2492.58 11074 2483.56C11096.1 2479.25 11118.9 2479.25 11141 2483.56C11249.6 2499.48 11348.1 2556.01 11416.6 2641.73C11432.2 2658.63 11444 2678.58 11451.4 2700.3V2700.3Z" fill="#FF725E"/>
<path d="M8895.66 6519.99L8327.15 6409.87L8429.56 6555.42L8186.86 6676.77L7983.79 6581.72C7999.57 6623.21 8019.43 6663.04 8043.06 6700.62C8087.6 6774.62 8148.28 6834.24 8185.45 6837.05C8197.92 6888.27 8223.83 6935.25 8260.51 6973.12C8293.51 7006.02 8334.49 7029.78 8379.43 7042.07C8424.37 7054.37 8471.74 7054.78 8516.89 7043.27L8898.82 6905.09L8895.66 6519.99Z" fill="#FFBE9D"/>
<path d="M8322.23 6805.13C8312.84 6816.89 8300.95 6826.42 8287.43 6833.03C8273.9 6839.65 8259.08 6843.17 8244.02 6843.36C8229.27 6846.44 8214.02 6846.31 8199.31 6842.98C8184.61 6839.65 8170.79 6833.2 8158.8 6824.07C8160.9 6818.81 8197.03 6830.73 8241.92 6824.07C8286.81 6817.41 8319.43 6800.57 8322.23 6805.13Z" fill="#EB996E"/>
<path d="M8397.29 6926.13C8400.8 6929.64 8376.25 6956.99 8334.16 6967.86C8321.97 6972.59 8308.87 6974.54 8295.83 6973.57C8282.78 6972.6 8270.12 6968.73 8258.76 6962.25C8258.76 6956.99 8293.83 6960.15 8328.9 6950.33C8363.97 6940.51 8393.08 6922.27 8397.29 6926.13Z" fill="#EB996E"/>
<path d="M8540.03 6497.9C8524.49 6509.12 8507.93 6518.86 8490.58 6527.01C8460.07 6544.19 8420.44 6572.95 8375.9 6603.82C8337.76 6631.47 8295.34 6652.68 8250.34 6666.6C8231.77 6673.6 8211.64 6675.42 8192.12 6671.86C8192.12 6669.05 8213.86 6666.6 8246.48 6654.32C8288.59 6637.07 8328.6 6615.06 8365.73 6588.74C8403.43 6561.3 8443.18 6536.8 8484.62 6515.44C8501.51 6505.43 8520.46 6499.43 8540.03 6497.9V6497.9Z" fill="#EB996E"/>
<path d="M11988.7 7463.78C11988.7 7463.78 12008 7476.06 12056.4 7561.98C12204.7 7826.78 12264.7 8461.23 11705.6 9027.64C10982.4 9759.25 10135.5 10956.6 10135.5 10956.6L9469.09 13768L8464.63 13550.2L8982.29 10628.3L10401.7 7995.12L11988.7 7463.78Z" fill="#263238"/>
<path d="M13096.6 12904.9L11549.2 10536.8L11079.9 8492.8L9884.69 9080.25L10484.1 11154.8L12396.6 13536.9L13096.6 12904.9Z" fill="#263238"/>
<path d="M9469.79 13768C9470.03 13763.2 9470.85 13758.5 9472.25 13753.9C9474.35 13744.1 9477.16 13730.8 9480.67 13713.6C9489.08 13678.5 9500.66 13625.6 9515.74 13558.9L9647.26 12991.5C9759.84 12511.7 9915.21 11850.6 10087.1 11120.4C10100.4 11063.6 10113.7 11007.1 10126.3 10954.5V10952C10564.7 10390.9 10964.2 9894.62 11258.1 9542.15C11405.4 9366.79 11525.7 9226.5 11610.9 9130.4C11652.7 9082.35 11687 9046.58 11709.8 9022.03L11735.8 8994.32C11741.8 8988.01 11744.9 8984.86 11745.3 8985.21C11742.9 8988.81 11740.2 8992.22 11737.2 8995.38L11712.3 9024.14C11690.6 9049.74 11657.2 9086.21 11615.8 9134.96C11532.4 9231.41 11413.8 9373.1 11267.9 9550.22C10976.5 9904.79 10578.8 10402.5 10140.7 10963.3V10959.8C10128.4 11012.4 10115.1 11068.8 10101.4 11125.7L9659.88 12994.6C9602.01 13232.8 9554.67 13426 9522.75 13560.7C9506.27 13626.6 9493.64 13678.5 9484.52 13714.3C9480.31 13731.5 9476.81 13744.5 9474.35 13754.3C9473.26 13759 9471.73 13763.6 9469.79 13768V13768Z" fill="#455A64"/>
<path d="M11284.4 8211.17C11277.3 8217.1 11269.1 8221.63 11260.2 8224.49C11237 8234.53 11213 8242.39 11188.3 8247.99C11106.3 8266.7 11020.9 8264.19 10940.1 8240.68C10859.4 8217.18 10785.9 8173.46 10726.8 8113.67C10709 8095.71 10692.8 8076.23 10678.4 8055.45C10668.6 8040.37 10664 8031.6 10665 8030.9C10666.1 8030.19 10689.6 8061.76 10735.2 8104.2C10794.8 8159.61 10866.5 8200.32 10944.6 8223.1C11022.8 8245.87 11105.1 8250.07 11185.2 8235.37C11247.2 8224.14 11283.4 8208.36 11284.4 8211.17Z" fill="#455A64"/>
<path d="M12137.7 7585.13C11532.4 7903.94 10550 8094.38 10235.8 7964.96L10224.9 6798.82C10224.9 6798.82 9794.56 6089.31 9792.81 5821.01C9790.35 5435.22 10271.9 4552.45 10271.9 4552.45L10994.7 4358.51C11140.3 4355.4 11284.3 4388.93 11413.5 4456.01C11548.7 4530.92 11658.7 4644.15 11729.6 4781.46C11800.6 4918.76 11829.3 5073.98 11812.3 5227.59L11630.2 6387.77L12137.7 7585.13Z" fill="#FF725E"/>
<g opacity="0.3">
<path opacity="0.3" d="M11361.9 4454.95C11404 4448.64 11419.4 4517.03 11389.6 4547.19C11359.8 4577.36 11312.5 4578.76 11270.7 4585.07C11082.4 4614.53 10936.9 4775.86 10868.5 4953.68C10800.1 5131.49 10793.4 5325.79 10782.2 5514.83C10771 5703.87 10752.4 5900.62 10662.9 6069.32C10579.4 5921.29 10529.9 5756.52 10518.1 5586.97C10506.2 5417.43 10532.2 5247.36 10594.2 5089.12C10656.2 4930.88 10752.7 4788.44 10876.7 4672.14C11000.6 4555.83 11148.9 4468.58 11310.7 4416.73" fill="black"/>
</g>
<path d="M11413.5 4456.01C11413.5 4456.01 11308.3 4284.51 10960.4 4358.86C10727.5 4408.66 10218.2 4897.91 10360.3 5683.88C10502.3 6469.84 10883.2 6748.31 10883.2 6748.31C10883.2 6748.31 10532.5 5544.99 10727.5 5019.97C10778.5 4871.74 10869.7 4740.57 10990.8 4641.01C11111.9 4541.46 11258.2 4477.42 11413.5 4456.01Z" fill="#263238"/>
<g opacity="0.3">
<path opacity="0.3" d="M10238.2 7046.43C10382.4 7092.72 10520.5 7151.64 10670.7 7170.58C10820.9 7195.23 10974.9 7179.12 11116.8 7123.93C11309.3 7041.87 11452.4 6866.51 11526.1 6670.45C11599.7 6474.4 11609.9 6259.76 11590.2 6051.08C11458.7 6213.82 11474.5 6454.76 11362.6 6631.87C11292.5 6742.35 11178.5 6817.76 11061.4 6877.38C10805 7000.62 10522.4 7059.03 10238.2 7047.48" fill="black"/>
</g>
<path d="M10671.7 5855.03C10671.7 5855.03 10624.7 6740.25 11704.6 6564.19L11813.3 6820.21C11813.3 6820.21 10678 7060.1 10515.6 6118.77L10671.7 5855.03Z" fill="#263238"/>
<path d="M11655.8 4754.82C11701.3 4822.35 11731.9 4898.74 11745.7 4978.96C11759.5 5059.18 11756.1 5141.4 11735.8 5220.23L11466.8 6424.25C11351.4 6763.04 11022.1 6968.92 10817.3 6996.27L8899.17 7199.34V6483.52L10679.8 6219.08L10763.2 5244.08C10770.6 5112.91 10835.1 4877.22 10918.6 4775.51C11011.9 4662.23 11155.4 4507.91 11389.6 4547.19C11533.1 4571.04 11594.1 4666.79 11655.8 4754.82Z" fill="#FF725E"/>
<path d="M11711.2 5267.22C11711.5 5276.26 11710.9 5285.3 11709.5 5294.23C11707.4 5312.11 11704.2 5338.07 11699.7 5371.74C11690.6 5439.08 11676.5 5535.87 11655.1 5655.12C11633.7 5774.36 11606.4 5916.41 11570.3 6072.48C11552.4 6150.34 11533.1 6232.4 11509.6 6317.98C11486.6 6405.6 11455.1 6490.76 11415.6 6572.25C11375.6 6654.22 11320.7 6727.97 11253.6 6789.7C11191 6846.93 11120 6894.24 11043.1 6929.99C10912.7 6988.43 10773.4 7024.59 10631 7036.96C10510 7049.23 10411.8 7049.93 10344.1 7050.63H10265.9C10256.9 7051.46 10247.9 7051.46 10238.9 7050.63C10247.8 7049.05 10256.9 7048.34 10265.9 7048.53L10343.8 7045.37C10411.5 7042.57 10509.7 7039.76 10629.6 7025.73C10770.1 7011.87 10907.3 6974.9 11035.8 6916.31C11111.2 6881.45 11180.8 6835.33 11242.3 6779.53C11307.5 6718.83 11361 6646.67 11400.2 6566.64C11439.1 6486.2 11470.2 6402.23 11493.1 6315.88C11516.6 6232.4 11536.2 6150.69 11554.8 6072.83C11589.9 5917.11 11620.8 5776.12 11643.2 5657.22C11665.7 5538.33 11682.1 5441.88 11693.4 5376.65C11699 5344.73 11703.2 5319.13 11706.3 5299.84C11707.1 5288.86 11708.8 5277.96 11711.2 5267.22V5267.22Z" fill="#263238"/>
<path d="M10731.3 6424.25C10711.4 6391.74 10696.8 6356.21 10688.2 6319.03C10673.6 6284.1 10664.8 6247.02 10662.2 6209.26C10696.9 6276.25 10720.6 6348.36 10732.4 6422.85L10731.3 6424.25Z" fill="#263238"/>
<path d="M10840.4 6396.89C10802.5 6379.14 10769.1 6353.13 10742.6 6320.79C10711.7 6292.66 10687.8 6257.87 10672.4 6219.08C10702.4 6247.04 10730.5 6276.91 10756.6 6308.51C10786.5 6336.02 10814.5 6365.55 10840.4 6396.89V6396.89Z" fill="#263238"/>
<path d="M9066.11 6458.97L9074.18 6456.86L9098.03 6452.31L9189.92 6437.22L9531.17 6383.56L10677 6210.31L10669.3 6218.38C10675.6 6151.74 10682.2 6081.59 10689.2 6010.05C10712 5757.18 10736.2 5516.23 10748.2 5296.33C10756.5 5191.78 10776.5 5088.49 10807.8 4988.4C10832.9 4899.79 10875.6 4817.14 10933.3 4745.35C11047 4621.55 11174.3 4555.96 11267.9 4544.04C11303.7 4538.94 11340.1 4539.66 11375.6 4546.14C11387.5 4548.6 11396.6 4551.4 11402.6 4553.16L11411.7 4556.31C11364.9 4545.56 11316.5 4543.78 11269 4551.05C11177.8 4564.73 11053.6 4631.02 10943.2 4754.12C10887.3 4824.79 10846.2 4906.03 10822.5 4992.96C10791.9 5092.06 10772.6 5194.3 10765 5297.73C10754.1 5517.64 10729.9 5758.93 10707.1 6011.8C10700.5 6081.94 10693.8 6152.09 10687.1 6220.13V6227.14H10680.1L9531.87 6394.79L9189.92 6442.49L9097.33 6454.76L9073.48 6457.57L9066.11 6458.97Z" fill="#263238"/>
<path d="M10163.9 7042.22C10159 7042.22 10138.6 6880.53 10118.6 6680.27C10098.6 6480.01 10086.4 6316.58 10091.3 6315.88C10112.7 6435.77 10127.9 6556.7 10136.9 6678.17C10152.1 6798.98 10161.1 6920.49 10163.9 7042.22V7042.22Z" fill="#FAFAFA"/>
<path d="M11568.1 5955.34C11527.6 5958.83 11486.8 5959.42 11446.1 5957.09C11370.7 5957.09 11266.9 5952.88 11151.8 5948.67C11036.8 5944.46 10933 5939.55 10857.9 5934.99C10817.3 5934.34 10776.7 5930.71 10736.6 5924.12C10777.2 5920.14 10818 5919.44 10858.6 5922.02C10933.7 5922.02 11037.9 5926.23 11152.5 5930.44C11267.2 5934.64 11371 5939.55 11446.4 5944.11C11487.2 5944.6 11527.9 5948.35 11568.1 5955.34V5955.34Z" fill="#FAFAFA"/>
<path d="M10350.5 5726.32C10324.4 5733.01 10297.7 5736.54 10270.8 5736.84C10221.7 5740.34 10153.3 5742.8 10077.9 5741.4C10002.5 5739.99 9934.15 5734.73 9885.05 5729.12C9858.27 5727.93 9831.75 5723.33 9806.13 5715.44C9832.72 5712.81 9859.51 5712.81 9886.1 5715.44C9935.2 5717.9 10003.2 5720.7 10078.3 5722.11C10153.3 5723.51 10221.4 5722.11 10270.5 5722.11C10297.2 5720.55 10324 5721.96 10350.5 5726.32V5726.32Z" fill="#FAFAFA"/>
<path d="M10509 4894.41C10506.2 4898.97 10432.5 4859.34 10337.1 4824.26C10241.7 4789.19 10161.8 4767.8 10161.8 4762.54C10286.5 4777.76 10405.6 4823.01 10509 4894.41V4894.41Z" fill="#FAFAFA"/>
<path d="M11902 7082.55C11897.2 7086 11891.9 7088.71 11886.3 7090.62L11840 7109.56C11800 7126.04 11741.1 7147.78 11667.8 7173.39C11476.5 7239.25 11281.8 7294.75 11084.5 7339.63C10887.2 7385.56 10687.6 7420.68 10486.5 7444.84C10409.4 7453.61 10346.2 7459.57 10303.5 7462.38L10253.7 7465.18C10247.8 7466.11 10241.9 7466.11 10236.1 7465.18C10241.7 7463.25 10247.4 7462.07 10253.3 7461.68L10302.8 7455.36C10345.9 7450.45 10408 7442.74 10485.1 7432.22C10638.4 7411.18 10849.9 7376.45 11081.4 7323.84C11312.8 7271.24 11517.3 7210.21 11664.6 7162.16C11738.2 7138.31 11797.9 7118.32 11840 7103.94L11887.3 7088.16C11892 7085.84 11897 7083.97 11902 7082.55V7082.55Z" fill="#FAFAFA"/>
<path d="M11787.7 4985.24C11787.7 4990.15 11580.8 4987.7 11325.8 4979.28C11070.8 4970.86 10864.6 4960.34 10864.6 4955.43C10864.6 4950.52 11071.5 4952.98 11326.5 4961.04C11581.5 4969.11 11787.7 4979.98 11787.7 4985.24Z" fill="#FAFAFA"/>
<path d="M9316.18 7146.38C9302.67 7029.94 9295.18 6912.88 9293.73 6795.66C9286.11 6678.91 9284.71 6561.84 9289.52 6444.94C9303.03 6561.38 9310.52 6678.45 9311.97 6795.66C9319.59 6912.41 9320.99 7029.48 9316.18 7146.38Z" fill="#FAFAFA"/>
<path d="M5392.67 3559.57C5704.92 3501.6 6027.29 3535.47 6320.68 3657.07C6450.79 3711.43 6579.86 3788.24 6650 3910.64C6733.47 4055.13 6720.15 4233.3 6710.68 4399.89C6692.34 4739.29 6704.07 5079.65 6745.75 5416.98C6780.82 5697.56 6835.88 5978.13 6834.83 6258.71C6833.78 6539.28 6770.65 6834.59 6593.54 7054.84C6320.33 7393.99 5833.88 7489.39 5401.09 7431.52C5173.82 7401.35 4946.91 7333.31 4761.38 7197.94C4575.84 7062.56 4436.96 6853.88 4421.18 6625.21" fill="#455A64"/>
<path d="M5933.48 3989.55C5973.94 4037.4 6008.33 4090.05 6035.89 4146.32C6064.35 4208.3 6087.81 4272.45 6106.04 4338.17C6127.94 4419.65 6155 4499.66 6187.05 4577.71C6220.46 4657.11 6272.42 4727.34 6338.56 4782.53C6393.71 4827.86 6462.88 4852.65 6534.27 4852.67C6581.68 4853.13 6628.21 4839.86 6668.24 4814.44C6678.94 4807.39 6688.72 4799.02 6697.35 4789.54C6703.31 4783.23 6706.12 4779.37 6705.42 4779.02C6704.71 4778.67 6691.39 4790.59 6663.33 4806.73C6623.64 4828.43 6578.76 4838.86 6533.56 4836.89C6466.48 4834.82 6402.07 4810.1 6350.84 4766.75C6288.46 4712.93 6239.47 4645.32 6207.74 4569.29C6175.86 4492.14 6148.46 4413.21 6125.68 4332.91C6106.32 4266.54 6081.21 4202 6050.62 4140.01C6029.6 4098.19 6003.06 4059.38 5971.71 4024.62C5961.06 4010.84 5948.13 3998.98 5933.48 3989.55V3989.55Z" fill="#263238"/>
<path d="M6057.29 7409.77C6059.98 7400.86 6061.75 7391.69 6062.55 7382.42C6065.35 7361.84 6068.86 7335.19 6073.07 7302.45C6081.84 7232.31 6093.41 7132.7 6108.14 7008.55C6134.44 6759.89 6166.01 6416.18 6193.36 6036C6220.72 5655.82 6237.2 5310.71 6246.32 5060.65C6250.88 4935.79 6253.69 4834.79 6254.74 4764.99C6254.74 4732.02 6254.74 4705.37 6254.74 4684.68C6255.82 4675.36 6255.82 4665.94 6254.74 4656.62C6252.77 4665.73 6251.71 4675.01 6251.58 4684.33C6251.58 4705.37 6248.43 4731.67 6246.32 4764.64C6242.47 4837.24 6237.2 4937.55 6230.54 5059.95C6217.21 5309.66 6197.57 5654.07 6170.92 6034.25C6144.26 6414.43 6114.45 6758.13 6092.36 7006.79C6081.48 7129.2 6072.72 7229.15 6066.4 7301.4C6063.6 7334.37 6061.49 7361.02 6060.09 7381.71C6058.07 7390.93 6057.12 7400.34 6057.29 7409.77V7409.77Z" fill="#263238"/>
<path d="M6195.82 5886.6C6195.82 5892.56 6331.2 5911.5 6500.6 5915.71C6669.99 5919.91 6806.77 5908.69 6806.42 5902.38C6806.07 5896.07 6669.64 5897.12 6501.3 5892.56C6332.95 5888 6196.52 5879.93 6195.82 5886.6Z" fill="#263238"/>
<path d="M6305.95 5901.68C6292.26 5919.99 6282.69 5941.05 6277.89 5963.4C6270.28 5986.36 6264.19 6009.79 6259.65 6033.55C6255.8 6049.21 6255.8 6065.58 6259.65 6081.24C6262.31 6090.8 6267.6 6099.42 6274.92 6106.11C6282.23 6112.81 6291.28 6117.32 6301.04 6119.12C6306.53 6119.96 6312.15 6119.58 6317.48 6118C6322.82 6116.43 6327.74 6113.7 6331.9 6110C6339.41 6103.31 6344.47 6094.3 6346.28 6084.4C6348.71 6069.06 6348.71 6053.44 6346.28 6038.11C6343.83 6013.41 6339.13 5989 6332.25 5965.16C6328.12 5942.5 6318.76 5921.12 6304.89 5902.73C6306.27 5925.19 6310.15 5947.42 6316.47 5969.01C6320.68 5992.2 6323.49 6015.63 6324.88 6039.16C6326.84 6052.18 6326.84 6065.42 6324.88 6078.44C6322.08 6090.36 6314.71 6097.03 6305.24 6095.62C6281.04 6091.41 6275.78 6060.55 6280.69 6036.35C6285.6 6012.15 6289.46 5985.5 6293.67 5966.21C6300.47 5945.3 6304.59 5923.62 6305.95 5901.68V5901.68Z" fill="#263238"/>
<path d="M5072.09 3644.71L6539.76 3693.14C6725.41 3699.27 6880.88 3553.73 6887.01 3368.08L6896.42 3082.75C6902.55 2897.09 6757.01 2741.62 6571.36 2735.5L5103.69 2687.07C4918.04 2680.94 4762.57 2826.48 4756.44 3012.13L4747.03 3297.46C4740.9 3483.12 4886.44 3638.59 5072.09 3644.71Z" fill="#263238"/>
<path d="M6536.37 2753.61C6536.37 2753.61 6532.51 2750.1 6523.74 2745.9C6510.72 2739.8 6496.91 2735.55 6482.71 2733.27C6429.73 2725.33 6375.62 2735.46 6329.09 2762.03C6258.48 2797.04 6198.53 2850.32 6155.49 2916.35C6106.02 2998.89 6077.71 3092.38 6073.07 3188.5C6063.82 3284.88 6083.48 3381.82 6129.53 3466.98C6167.41 3536.55 6225.33 3593.13 6295.78 3629.36C6342.59 3653.69 6394.21 3667.35 6446.94 3669.34C6461.23 3669.94 6475.55 3669.23 6489.72 3667.24C6494.71 3667.1 6499.61 3665.91 6504.1 3663.73C6504.1 3661.63 6483.76 3663.73 6447.64 3660.22C6396.98 3655.04 6347.92 3639.52 6303.49 3614.63C6237.39 3578.34 6183.37 3523.47 6148.12 3456.81C6105.3 3374.88 6087.27 3282.26 6096.22 3190.26C6100.7 3097.81 6127.15 3007.76 6173.37 2927.57C6214 2864.01 6270.28 2811.96 6336.81 2776.41C6380.23 2749.84 6430.89 2737.57 6481.66 2741.34C6517.43 2745.19 6535.67 2755.72 6536.37 2753.61Z" fill="#455A64"/>
<path d="M5710.42 2703.11L5933.48 2714.33C5872.17 2723.72 5816.28 2754.84 5776.01 2802.01C5736.26 2848.96 5706.97 2903.84 5690.08 2962.99C5612.57 3208.5 5706.22 3502.4 5900.51 3671.8L5719.89 3668.99C5719.89 3668.99 5280.44 3138.7 5709.02 2703.11" fill="#455A64"/>
<path d="M4620.39 2282.95C4529.2 2062.34 4524.29 1679.36 4663.52 1476.29C4802.76 1273.22 5063.7 1141.7 5303.24 1090.5C5342.66 1078.38 5384.81 1078.38 5424.24 1090.5C5443.44 1097.72 5459.22 1111.9 5468.44 1130.23C5477.67 1148.55 5479.67 1169.67 5474.04 1189.4C5520.59 1157.45 5572.15 1133.5 5626.6 1118.56C5653.98 1110.82 5682.84 1109.98 5710.62 1116.1C5738.4 1122.22 5764.23 1135.11 5785.83 1153.63C5796.24 1163.15 5804.62 1174.67 5810.49 1187.5C5816.35 1200.33 5819.58 1214.21 5819.97 1228.32C5820.36 1242.42 5817.91 1256.46 5812.77 1269.59C5807.63 1282.73 5799.9 1294.7 5790.04 1304.79C5823.79 1292.27 5860.48 1289.96 5895.54 1298.15C5930.59 1306.34 5962.46 1324.66 5987.18 1350.84C6011.9 1377.01 6028.36 1409.88 6034.53 1445.35C6040.7 1480.81 6036.29 1517.31 6021.86 1550.29C5989.06 1617.83 5943.58 1678.44 5887.89 1728.81C5837.73 1775.1 5829.32 1822.8 5837.74 1890.49" fill="#263238"/>
<path d="M4677.55 1878.57L4614.42 3228.14C4611.81 3282.53 4620.28 3336.89 4639.33 3387.91C4658.38 3438.92 4687.61 3485.53 4725.24 3524.9C4762.87 3564.27 4808.11 3595.57 4858.22 3616.9C4908.32 3638.24 4962.24 3649.16 5016.7 3649C5119.79 3648.48 5218.73 3608.36 5293.08 3536.95C5367.43 3465.54 5411.49 3368.29 5416.17 3265.31C5420.73 3163.6 5424.94 3078.73 5425.99 3068.56C5425.99 3068.56 5771.1 3052.43 5811.78 2713.63C5831.42 2549.84 5844.75 2209.29 5852.82 1901.01C5857.08 1741.34 5801.05 1585.92 5695.9 1465.68C5590.74 1345.45 5444.17 1269.22 5285.35 1252.18L5252.73 1248.67C4898.51 1231.14 4685.27 1522.94 4677.55 1878.57Z" fill="#FFBE9D"/>
<path d="M5428.09 3063.65C5271.19 3049.79 5121.98 2989.47 4999.51 2890.39C4999.51 2890.39 5067.2 3102.58 5408.8 3108.54L5428.09 3063.65Z" fill="#EB996E"/>
<path d="M5731.82 2117.41C5730.57 2130.1 5724.4 2141.79 5714.63 2149.99C5704.86 2158.18 5692.27 2162.22 5679.56 2161.25C5673.36 2161.07 5667.25 2159.65 5661.61 2157.06C5655.96 2154.48 5650.9 2150.79 5646.71 2146.21C5642.52 2141.63 5639.3 2136.25 5637.23 2130.4C5635.16 2124.55 5634.29 2118.34 5634.67 2112.14C5635.91 2099.52 5642.03 2087.88 5651.73 2079.69C5661.42 2071.51 5673.92 2067.42 5686.57 2068.3C5692.78 2068.53 5698.88 2069.98 5704.51 2072.58C5710.15 2075.17 5715.22 2078.86 5719.43 2083.42C5723.64 2087.99 5726.9 2093.34 5729.02 2099.18C5731.15 2105.01 5732.1 2111.2 5731.82 2117.41V2117.41Z" fill="#263238"/>
<path d="M5763.03 2059.54C5756.37 2065.15 5722.7 2034.29 5670.44 2028.67C5618.18 2023.06 5577.5 2045.16 5572.59 2038.14C5567.68 2031.13 5577.15 2024.11 5595.39 2013.94C5619.61 2000.81 5647.27 1995.43 5674.65 1998.51C5701.81 2001.37 5727.36 2012.79 5747.6 2031.13C5762.33 2043.75 5766.89 2057.08 5763.03 2059.54Z" fill="#263238"/>
<path d="M5217.31 2078.83C5216.06 2091.45 5209.95 2103.09 5200.25 2111.28C5190.56 2119.46 5178.06 2123.55 5165.4 2122.67C5159.2 2122.44 5153.1 2120.99 5147.46 2118.39C5141.82 2115.8 5136.76 2112.11 5132.55 2107.55C5128.34 2102.98 5125.08 2097.63 5122.96 2091.8C5120.83 2085.96 5119.88 2079.77 5120.16 2073.57C5121.32 2060.91 5127.42 2049.21 5137.13 2041.01C5146.84 2032.8 5159.39 2028.75 5172.07 2029.73C5178.3 2029.86 5184.45 2031.24 5190.13 2033.81C5195.81 2036.37 5200.92 2040.05 5205.15 2044.64C5209.37 2049.23 5212.63 2054.62 5214.72 2060.49C5216.81 2066.37 5217.69 2072.6 5217.31 2078.83Z" fill="#263238"/>
<path d="M5249.58 2013.94C5242.91 2019.56 5209.24 1988.69 5156.99 1983.08C5104.73 1977.47 5063.7 1999.56 5058.79 1992.55C5053.88 1985.54 5063.7 1978.87 5081.58 1968.35C5105.94 1955.26 5133.71 1949.87 5161.2 1952.92C5188.31 1955.94 5213.81 1967.34 5234.15 1985.54C5248.53 1999.56 5252.73 2011.49 5249.58 2013.94Z" fill="#263238"/>
<path d="M5397.23 2421.13C5425.59 2415.25 5454.6 2413.13 5483.51 2414.82C5496.84 2414.82 5509.81 2414.82 5512.97 2405C5515.7 2391.41 5514.11 2377.3 5508.41 2364.66L5480 2259.45C5440.72 2109.34 5414.07 1986.24 5420.03 1984.83C5425.99 1983.43 5462.82 2103.73 5502.1 2254.19C5511.22 2289.26 5520.33 2326.44 5528.75 2359.4C5534.94 2376.51 5534.94 2395.25 5528.75 2412.36C5526.4 2416.89 5523.01 2420.81 5518.87 2423.79C5514.73 2426.78 5509.95 2428.75 5504.9 2429.55C5497.34 2430.57 5489.67 2430.57 5482.11 2429.55C5453.57 2430.46 5425.03 2427.63 5397.23 2421.13V2421.13Z" fill="#263238"/>
<path d="M5240.81 2440.77C5249.23 2440.77 5243.26 2497.59 5287.45 2543.18C5331.65 2588.77 5392.67 2588.77 5392.67 2596.84C5392.67 2604.91 5378.29 2606.31 5352.69 2604.21C5319.43 2601.18 5288.34 2586.38 5265.01 2562.47C5242.63 2539.74 5230.04 2509.14 5229.94 2477.24C5228.18 2453.4 5235.9 2440.07 5240.81 2440.77Z" fill="#263238"/>
<path d="M5285 1811.23C5278.34 1824.91 5227.13 1811.23 5165.05 1813.33C5102.98 1815.44 5051.77 1825.26 5045.11 1813.33C5042.3 1806.67 5052.12 1794.39 5073.52 1782.82C5101.88 1768.47 5133.27 1761.14 5165.05 1761.43C5196.76 1761.12 5228.1 1768.2 5256.59 1782.12C5277.99 1792.29 5288.16 1804.56 5285 1811.23Z" fill="#263238"/>
<path d="M5760.23 1906.62C5749.7 1917.5 5715.33 1901.36 5672.19 1896.1C5629.06 1890.84 5591.53 1896.1 5584.51 1882.07C5581.36 1875.76 5588.37 1864.54 5605.56 1855.07C5628.31 1844.31 5653.71 1840.43 5678.64 1843.92C5703.56 1847.41 5726.92 1858.11 5745.85 1874.71C5761.28 1888.39 5764.78 1901.36 5760.23 1906.62Z" fill="#263238"/>
<path d="M4679.66 2132.84C4674.05 2129.68 4454.15 2038.84 4436.26 2271.37C4418.37 2503.9 4656.16 2474.09 4656.86 2467.42C4657.56 2460.76 4679.66 2132.84 4679.66 2132.84Z" fill="#FFBE9D"/>
<path d="M4591.28 2373.78C4591.28 2373.78 4587.07 2376.24 4579.7 2379.04C4570 2382.8 4559.24 2382.8 4549.54 2379.04C4535.22 2368.36 4524 2354.05 4517.03 2337.59C4510.07 2321.14 4507.61 2303.12 4509.91 2285.4C4510.89 2265.41 4516.28 2245.89 4525.69 2228.23C4528.43 2221.18 4532.83 2214.89 4538.5 2209.89C4544.18 2204.88 4550.97 2201.31 4558.31 2199.47C4563.08 2198.58 4568.01 2199.39 4572.24 2201.76C4576.47 2204.14 4579.73 2207.92 4581.46 2212.45C4584.26 2219.11 4581.46 2223.67 4583.56 2224.02C4585.66 2224.38 4588.82 2220.52 4587.77 2211.05C4586.81 2205.17 4583.98 2199.76 4579.7 2195.62C4573.64 2190.24 4565.7 2187.47 4557.61 2187.9C4547.92 2189.08 4538.71 2192.73 4530.84 2198.51C4522.98 2204.28 4516.74 2211.98 4512.72 2220.87C4501.17 2240.23 4494.66 2262.18 4493.78 2284.7C4490.94 2305.34 4494.29 2326.35 4503.4 2345.08C4512.52 2363.81 4526.99 2379.42 4544.98 2389.92C4551.13 2392.24 4557.72 2393.16 4564.28 2392.62C4570.83 2392.07 4577.18 2390.07 4582.86 2386.76C4590.22 2379.39 4591.98 2374.13 4591.28 2373.78Z" fill="#EB996E"/>
<path d="M6035.89 1473.13C6040.1 1776.86 5658.87 1874.36 5509.81 1693.39C5439.67 1609.56 5381.8 1506.8 5281.84 1464.01C5247.64 1450.73 5211.13 1444.41 5174.45 1445.43C5137.77 1446.45 5101.66 1454.8 5068.26 1469.98H5066.15C4966.55 1512.41 4901.31 1619.03 4878.17 1724.95C4846.25 1872.6 4859.93 2005.53 4810.83 2139.85C4805.78 2159.99 4794.18 2177.88 4777.86 2190.71C4748.4 2208.59 4707.72 2187.9 4687.72 2160.19C4657.07 2113.15 4640.85 2058.17 4641.08 2002.02C4630.26 1875.1 4644.81 1747.29 4683.87 1626.05C4723.5 1504.48 4797.87 1397.18 4897.81 1317.41C5026.62 1222.34 5187.31 1180.97 5346.03 1202.03C5504.21 1224.13 5651.45 1295.41 5766.89 1405.8C5822.68 1454.37 5865.47 1516.08 5891.4 1585.36" fill="#263238"/>
<path d="M5801.96 1288.3C5812.87 1286.85 5823.97 1288.17 5834.23 1292.16C5862.76 1301.72 5888.04 1319.09 5907.18 1342.32C5936.75 1376.08 5954.05 1418.84 5956.28 1463.66C5956.68 1518.96 5936.56 1572.45 5899.81 1613.77C5864.5 1655.08 5818.34 1685.7 5766.54 1702.15C5724.85 1715.5 5681.23 1721.79 5637.47 1720.74C5608.27 1720.21 5579.17 1717.16 5550.5 1711.62C5539.72 1710.59 5529.24 1707.49 5519.63 1702.5C5519.63 1699.35 5564.87 1709.52 5637.12 1708.12C5679.35 1707.3 5721.21 1700.09 5761.28 1686.72C5809.67 1670.15 5852.77 1640.98 5886.13 1602.2C5919.98 1564.21 5938.92 1515.24 5939.44 1464.37C5938.36 1422.83 5923.7 1382.79 5897.71 1350.38C5880.35 1328.18 5857.5 1310.9 5831.42 1300.23C5813.54 1291.11 5801.96 1290.06 5801.96 1288.3Z" fill="#455A64"/>
<path d="M5654.66 1169.76C5654.66 1169.76 5663.43 1167.66 5676.75 1175.37C5685.67 1181.23 5693.18 1188.98 5698.76 1198.08C5704.33 1207.17 5707.84 1217.38 5709.02 1227.98C5711.29 1259.17 5702.61 1290.18 5684.47 1315.66C5665.3 1346.97 5641.67 1375.33 5614.33 1399.83C5564.47 1444.78 5504.2 1476.61 5438.97 1492.42C5412.56 1500.63 5384.73 1503.26 5357.25 1500.14C5357.25 1496.63 5388.11 1495.23 5435.46 1480.15C5496.91 1461.38 5553.53 1429.42 5601.35 1386.51C5627.64 1363.12 5650.86 1336.48 5670.44 1307.24C5687.33 1284.94 5696.45 1257.71 5696.4 1229.73C5695.81 1220.49 5693.4 1211.46 5689.31 1203.15C5685.22 1194.84 5679.52 1187.43 5672.55 1181.33C5661.67 1172.92 5654.31 1171.16 5654.66 1169.76Z" fill="#455A64"/>
<path d="M4668.43 4483.71L4777.51 3686.18L3210.14 4001.83L1783.76 3506.26L1398.32 3902.57L2916.24 4684.33C3051.62 4748.98 3204.17 4768.53 3351.48 4740.09L4668.43 4483.71Z" fill="#FFBE9D"/>
<path d="M1783.76 3506.26C1783.76 3506.26 1238.39 3245.32 1203.32 3236.2C1176.31 3229.19 764.57 3207.44 576.934 3197.62C562.228 3197.5 548.006 3202.88 537.064 3212.71C526.123 3222.53 519.251 3236.1 517.801 3250.73C516.351 3265.37 520.426 3280.02 529.226 3291.8C538.027 3303.58 550.916 3311.65 565.361 3314.41H572.375C677.591 3323.18 907.663 3375.79 907.663 3375.79L802.447 3621.29C797.348 3633.46 796.477 3646.98 799.974 3659.7C803.472 3672.42 811.135 3683.59 821.737 3691.44L1139.14 3926.07C1180.7 3944.97 1226.5 3952.58 1271.94 3948.15C1317.38 3943.71 1360.85 3927.39 1397.97 3900.82L1538.26 3929.58L1783.76 3506.26Z" fill="#FFBE9D"/>
<path d="M801.395 3636.73C811.215 3682.67 920.64 3777.01 1003.76 3777.01C1022.09 3777.32 1039.91 3770.96 1053.91 3759.13C1060.56 3752.91 1065.21 3744.85 1067.27 3735.98C1069.33 3727.12 1068.71 3717.84 1065.49 3709.32C1059.63 3698.85 1051.33 3689.94 1041.29 3683.37L856.809 3538.52" fill="#FFBE9D"/>
<path d="M856.809 3538.52C884.296 3553.22 910.26 3570.61 934.318 3590.43L1015.33 3651.11C1030.77 3663.03 1046.2 3673.2 1063.03 3688.63C1067.87 3693.13 1071.76 3698.55 1074.47 3704.57C1077.18 3710.59 1078.66 3717.1 1078.81 3723.7C1078.85 3736.45 1074.52 3748.83 1066.54 3758.78C1058.48 3767.86 1048.43 3774.96 1037.17 3779.52C1025.92 3784.08 1013.77 3785.98 1001.66 3785.08C980.687 3784.01 960.105 3779.02 940.981 3770.35C909.225 3756.67 879.953 3737.83 854.354 3714.59C836.89 3699.18 821.871 3681.2 809.812 3661.28C801.746 3646.55 801.395 3636.73 802.447 3636.73C803.499 3636.73 806.305 3644.79 815.774 3657.42C829.481 3675.03 845.26 3690.93 862.771 3704.77C888.338 3725.53 916.816 3742.43 947.294 3754.92C964.774 3762.25 983.42 3766.4 1002.36 3767.19C1011.6 3767.89 1020.89 3766.49 1029.51 3763.09C1038.14 3759.69 1045.88 3754.38 1052.16 3747.55C1057.78 3741.15 1060.88 3732.92 1060.88 3724.41C1060.88 3715.89 1057.78 3707.66 1052.16 3701.26C1038.83 3688.63 1020.95 3676.36 1006.92 3666.19L926.953 3600.6C901.411 3582.49 877.894 3561.67 856.809 3538.52V3538.52Z" fill="#EB996E"/>
<path d="M1242.6 3778.42C1242.6 3778.42 1230.33 3772.1 1219.1 3754.57C1204.45 3731.29 1196.22 3704.55 1195.25 3677.06C1193.84 3649.77 1199.52 3622.59 1211.74 3598.15C1221.56 3579.56 1231.38 3570.79 1233.13 3572.19C1221.29 3606.07 1214.67 3641.54 1213.49 3677.41C1217.94 3712.38 1227.76 3746.45 1242.6 3778.42V3778.42Z" fill="#EB996E"/>
<path d="M1023.75 3652.51C1031.32 3666.77 1043.58 3677.98 1058.45 3684.25C1073.33 3690.53 1089.91 3691.48 1105.41 3686.95C1120.9 3682.41 1134.36 3672.67 1143.51 3659.37C1152.65 3646.07 1156.93 3630.02 1155.62 3613.93C1152.5 3594.38 1145.41 3575.68 1134.8 3558.98C1124.18 3542.27 1110.26 3527.91 1093.9 3516.78L957.466 3393.33" fill="#FFBE9D"/>
<path d="M957.466 3391.92C978.153 3404 997.341 3418.48 1014.63 3435.06L1073.2 3485.21C1098.74 3505.43 1122.24 3528.1 1143.35 3552.9C1154.21 3567.08 1161.43 3583.69 1164.39 3601.3C1167.16 3618.35 1163.93 3635.82 1155.27 3650.75C1148.54 3663.4 1138.4 3673.92 1126.01 3681.11C1113.61 3688.3 1099.45 3691.87 1085.13 3691.44C1066.35 3690.54 1048.59 3682.66 1035.33 3669.34C1026.21 3659.87 1024.1 3652.86 1024.8 3652.51C1025.51 3652.16 1030.42 3657.07 1039.89 3664.08C1053.14 3673.65 1069.13 3678.69 1085.48 3678.46C1096.95 3678.08 1108.12 3674.62 1117.8 3668.45C1127.49 3662.28 1135.34 3653.63 1140.54 3643.39C1146.46 3630.45 1148.49 3616.06 1146.37 3601.98C1144.26 3587.91 1138.09 3574.75 1128.62 3564.13C1108.45 3540.63 1086.53 3518.7 1063.03 3498.54L1006.92 3445.23C988.088 3429.79 971.451 3411.86 957.466 3391.92V3391.92Z" fill="#EB996E"/>
<path d="M1257.68 3371.23C1147.64 3397.52 1042.58 3441.46 946.594 3501.35C940.454 3504.34 935.598 3509.45 932.915 3515.73C930.11 3524.85 937.124 3533.61 944.489 3539.58C974.712 3560.03 1011.5 3568.41 1047.6 3563.07C1083.15 3557.41 1118.97 3553.66 1154.92 3551.85C1217.35 3551.85 1274.87 3583.06 1335.19 3599.9C1395.52 3616.73 1468.46 3616.03 1510.55 3569.04" fill="#FFBE9D"/>
<path d="M1509.85 3569.04C1509.85 3569.04 1509.85 3572.54 1504.24 3577.45C1497.59 3584.63 1489.91 3590.78 1481.44 3595.69C1449.33 3613.17 1412.39 3619.7 1376.23 3614.28C1324.73 3605.4 1274.23 3591.54 1225.42 3572.89C1197.17 3564.09 1167.66 3560.06 1138.09 3560.97C1107.22 3562.72 1075.31 3570.44 1040.24 3572.54C1005.26 3576.64 969.962 3568.19 940.632 3548.69C932.114 3543.26 925.877 3534.91 923.096 3525.2C921.718 3519.09 922.721 3512.7 925.901 3507.31C928.671 3503.13 932.249 3499.56 936.423 3496.79C950.101 3488.02 962.727 3481.01 975.704 3473.64C1020.59 3447.97 1067.51 3426.04 1115.99 3408.06C1148.87 3395.79 1182.49 3385.6 1216.65 3377.54C1229.05 3373.73 1241.91 3371.61 1254.88 3371.23C1254.88 3374.39 1201.92 3386.66 1120.55 3419.98C1073.03 3439.56 1026.86 3462.29 982.367 3488.02C970.092 3495.38 956.765 3503.45 944.84 3511.17C939.229 3515.38 937.475 3517.83 938.527 3521.34C940.575 3526.77 944.409 3531.35 949.4 3534.31C975.547 3550.96 1006.66 3558.03 1037.43 3554.31C1070.05 3552.2 1102.66 3544.84 1135.28 3543.43C1166.91 3542.51 1198.47 3547.02 1228.57 3556.76C1276.34 3575.8 1325.61 3590.82 1375.88 3601.65C1409.42 3607.39 1443.9 3603.25 1475.13 3589.73C1487.08 3583.49 1498.68 3576.58 1509.85 3569.04Z" fill="#EB996E"/>
<path d="M3234.34 4276.79C3203.78 4186.15 3200.98 4088.46 3226.27 3996.21C3231.53 3996.21 3226.27 4060.04 3226.27 4136.5C3226.27 4212.96 3239.6 4275.74 3234.34 4276.79Z" fill="#EB996E"/>
<path d="M4606.01 3316.17L4161.29 3817.35C4161.29 3817.35 3923.51 5548.15 3906.67 5684.23C3889.84 5820.31 3844.59 6254.5 3844.59 6373.39C3844.59 6492.29 3746.04 7342.08 3746.04 7342.08C3746.04 7342.08 5633.27 7734.19 5949.26 7342.08L5850.71 6614.34L5936.29 4809.18C5936.29 4809.18 6076.58 3556.06 5417.22 3266.01C5416.17 3265.31 4999.51 3516.78 4606.01 3316.17Z" fill="#FF725E"/>
<path d="M5720.24 3442.78C5720.24 3442.78 5590.13 3314.41 5174.17 3422.08C4736.12 3535.37 4505 3945.36 4613.02 5105.54C4702.81 6063.01 5081.23 6200.49 5081.23 6200.49C5081.23 6200.49 4873.96 4756.57 4909.73 4152.63C4954.62 3389.82 5719.54 3579.56 5719.54 3579.56C5828.97 3545.19 5720.24 3442.78 5720.24 3442.78Z" fill="#263238"/>
<path d="M4606.01 3316.17L4221.62 3422.09L3356.74 3951.67L3602.95 4733.78L4110.79 4678.01L4606.01 3316.17Z" fill="#FF725E"/>
<path d="M4105.53 3859.08C4110.79 3859.08 4088.69 4139.66 4056.78 4483.36C4024.86 4827.07 3994.7 5106.94 3989.79 5106.24C3984.88 5105.54 4006.63 4825.67 4038.54 4481.96C4070.46 4138.25 4100.62 3858.73 4105.53 3859.08Z" fill="#263238"/>
<path d="M5866.14 6289.92C5866.14 6289.92 5743.39 6684.48 5309.55 6032.85C4875.71 5381.21 4936.38 5672.66 4936.38 5672.66L4847.65 5777.87C4847.65 5777.87 5324.98 6852.83 5860.53 6684.48L5866.14 6289.92Z" fill="#263238"/>
<path opacity="0.3" d="M4087.99 4047.07L3746.04 4718L4028.72 4687.13L4087.99 4047.07Z" fill="black"/>
<g opacity="0.3">
<path opacity="0.3" d="M3931.22 5828.37C4182.89 6102.27 4480.14 6330.47 4809.77 6502.81C4947.61 6575.06 5100.17 6638.54 5254.49 6618.55C5424.24 6596.8 5570.14 6474.05 5649.75 6322.89C5729.36 6171.73 5719.89 6098.78 5737.78 5929.03C5758.82 5741.75 5758.82 5491.68 5768.64 5320.88C5768.64 5290.72 5770.75 5255.65 5770.75 5222.33C5770.74 5186.25 5782.38 5151.13 5803.92 5122.2C5825.47 5093.26 5855.78 5072.04 5890.34 5061.7V5061.7C5890.34 5061.7 5785.13 5012.95 5717.44 5022.77C5649.75 5032.59 5595.74 5090.46 5559.61 5150.08C5367.07 5467.48 5450.89 5932.89 5083.69 6132.1C4962.32 6194.13 4823.91 6214.46 4689.83 6189.97C4389.26 6140.87 4159.19 5944.46 3937.53 5750.87" fill="black"/>
</g>
<path d="M4346.47 5171.48C4438.48 5171.48 4513.06 4947.25 4513.06 4670.65C4513.06 4394.05 4438.48 4169.82 4346.47 4169.82C4254.47 4169.82 4179.88 4394.05 4179.88 4670.65C4179.88 4947.25 4254.47 5171.48 4346.47 5171.48Z" fill="#FAFAFA"/>
<path d="M4434.15 13381.1L4472.38 14205.7C4472.38 14205.7 3647.14 14521.3 3639.07 14674.6L5240.46 14658.1L5233.79 13371L4434.15 13381.1Z" fill="#FF725E"/>
<g opacity="0.6">
<path opacity="0.6" d="M4968.3 14131.3C4983.69 14135.9 4996.86 14146 5005.33 14159.6C5013.8 14173.2 5016.97 14189.5 5014.24 14205.3C5010.25 14220.9 5000.43 14234.4 4986.8 14243C4973.17 14251.7 4956.76 14254.7 4940.94 14251.6C4924.67 14246.6 4910.78 14235.8 4901.88 14221.3C4892.97 14206.8 4889.65 14189.5 4892.54 14172.7C4898.49 14156.9 4910.28 14144 4925.49 14136.6C4940.7 14129.2 4958.16 14127.9 4974.26 14133.1" fill="white"/>
</g>
<path opacity="0.6" d="M5240.81 14658.1V14529.7L3702.55 14592.9C3702.55 14592.9 3632.41 14624.4 3640.12 14674.6L5240.81 14658.1Z" fill="white"/>
<path d="M4447.48 14198C4447.48 14205.7 4487.11 14208.8 4525.69 14233C4564.27 14257.2 4585.31 14290.2 4592.68 14287C4600.04 14283.9 4587.77 14239 4540.07 14209.9C4492.37 14180.8 4445.73 14190.6 4447.48 14198Z" fill="#263238"/>
<path d="M4280.54 14269.2C4278.78 14276.9 4312.8 14289.8 4339.46 14322.5C4366.11 14355.1 4374.53 14390.2 4382.25 14389.8C4389.96 14389.5 4394.52 14344.9 4360.5 14304.9C4326.48 14264.9 4280.54 14261.8 4280.54 14269.2Z" fill="#263238"/>
<path d="M4188.65 14471.2C4195.66 14471.2 4206.19 14433.6 4185.49 14390.9C4164.8 14348.1 4128.33 14331.6 4125.17 14338.2C4122.01 14344.9 4144.81 14367.4 4160.24 14402.8C4175.67 14438.2 4179.18 14470.5 4188.65 14471.2Z" fill="#263238"/>
<path d="M4459.76 14008.9C4463.26 14016.3 4499.04 14005.1 4543.23 14008.9C4587.42 14012.8 4621.79 14025.1 4626 14018.4C4630.21 14011.7 4596.54 13983.3 4544.28 13981.6C4492.02 13979.8 4455.9 14003.3 4459.76 14008.9Z" fill="#263238"/>
<path opacity="0.3" d="M4443.27 13544.6L4449.94 13691.5L5236.95 13676.1L5236.6 13543.5L4443.27 13544.6Z" fill="black"/>
<path d="M4455.2 13842.7C4481.48 13849.9 4509.23 13849.9 4535.51 13842.7C4564.29 13837.1 4592.31 13828.2 4618.98 13816C4634.83 13808.7 4650.18 13800.4 4664.93 13791.1C4673.67 13785.9 4681.69 13779.5 4688.78 13772.2C4693.72 13766.5 4696.69 13759.4 4697.26 13751.8C4697.83 13744.3 4695.96 13736.8 4691.93 13730.4C4687.93 13724.9 4682.65 13720.4 4676.54 13717.4C4670.44 13714.3 4663.69 13712.8 4656.86 13712.9C4646.63 13712.8 4636.45 13714.4 4626.7 13717.5C4609.66 13721.6 4593.09 13727.5 4577.25 13735C4550.22 13747.3 4525.36 13763.9 4503.6 13784.1C4466.77 13819.2 4454.5 13848.3 4457.3 13850C4460.11 13851.8 4478.7 13827.6 4516.22 13798.8C4537.83 13782.3 4561.39 13768.6 4586.37 13757.8C4601.32 13751.8 4616.68 13746.9 4632.31 13743.1C4649.15 13738.5 4663.88 13738.5 4667.38 13745.9C4670.89 13753.2 4667.38 13749.7 4665.63 13755C4660.55 13760.5 4654.63 13765.1 4648.09 13768.7C4634.54 13777.8 4620.49 13786.1 4606.01 13793.6C4581.27 13806.1 4555.45 13816.3 4528.85 13824.1C4503.9 13828.6 4479.29 13834.8 4455.2 13842.7V13842.7Z" fill="#263238"/>
<path d="M4465.37 13853.6C4480.5 13830.7 4487.66 13803.4 4485.71 13776C4486.85 13746.3 4482.82 13716.7 4473.79 13688.4C4468.6 13671.5 4461.67 13655.3 4453.09 13640C4448.68 13629.4 4441.61 13620.2 4432.57 13613.2C4423.54 13606.2 4412.85 13601.6 4401.54 13600C4394.35 13599.9 4387.3 13601.9 4381.35 13606C4375.39 13610 4370.8 13615.7 4368.22 13622.4C4364.11 13631.8 4361.39 13641.7 4360.15 13651.9C4357.33 13669.8 4357.33 13688 4360.15 13705.9C4364.87 13735.9 4376.91 13764.4 4395.22 13788.7C4426.79 13829.7 4459.76 13838.8 4460.11 13836C4460.46 13833.2 4435.56 13817.4 4411.01 13777.8C4397.01 13755 4388.15 13729.3 4385.05 13702.7C4382.98 13687.3 4382.98 13671.6 4385.05 13656.1C4387.51 13639.3 4393.82 13625.2 4400.13 13627C4406.45 13628.7 4421.88 13639.6 4428.54 13652.9C4436.61 13666.8 4443.41 13681.4 4448.88 13696.4C4457.92 13722.1 4463.35 13748.9 4465.02 13776C4469.23 13823 4461.16 13852.5 4465.37 13853.6Z" fill="#263238"/>
<path d="M5987.14 12881L6634.57 13392.7C6634.57 13392.7 6331.9 14222.9 6442.38 14329.1L7479.81 13109.3L6503.4 12270L5987.14 12881Z" fill="#FF725E"/>
<g opacity="0.6">
<path opacity="0.6" d="M6902.52 12970.4C6916.07 12961.7 6932.36 12958.3 6948.27 12960.8C6964.18 12963.3 6978.61 12971.6 6988.8 12984.1C6997.95 12997.3 7001.7 13013.6 6999.28 13029.5C6996.87 13045.4 6988.48 13059.8 6975.82 13069.7C6961.38 13078.7 6944.17 13082.1 6927.39 13079.3C6910.62 13076.5 6895.42 13067.7 6884.63 13054.6C6876.4 13039.8 6874.25 13022.4 6878.63 13006C6883.02 12989.7 6893.6 12975.6 6908.13 12966.9" fill="white"/>
</g>
<path opacity="0.6" d="M7479.81 13109L7382.66 13025.1L6421.33 14228.1C6421.33 14228.1 6398.89 14302.5 6442.38 14328.8L7479.81 13109Z" fill="white"/>
<path d="M6611.42 13407.1C6617.74 13412 6646.5 13384.3 6689.98 13372C6733.47 13359.7 6772.4 13364.6 6774.51 13357.3C6776.61 13349.9 6734.88 13329.2 6681.92 13346.1C6628.96 13362.9 6605.11 13403.6 6611.42 13407.1Z" fill="#263238"/>
<path d="M6555.66 13580C6560.22 13586.3 6590.73 13569.1 6634.92 13570.2C6679.11 13571.2 6708.92 13588.4 6713.48 13582.1C6718.04 13575.8 6687.88 13543.5 6635.27 13543.2C6582.66 13542.8 6550.05 13575.1 6555.66 13580Z" fill="#263238"/>
<path d="M6646.85 13782.7C6652.81 13778.5 6630.01 13744.8 6584.42 13732.6C6538.82 13720.3 6502.35 13736.8 6505.16 13743.4C6507.96 13750.1 6540.23 13748 6577.4 13758.9C6614.58 13769.7 6641.23 13788.3 6646.85 13782.7Z" fill="#263238"/>
<path d="M6477.1 13273.8C6484.46 13275.9 6499.54 13241.9 6530.41 13210C6561.27 13178.1 6594.24 13161.2 6591.78 13153.5C6589.33 13145.8 6546.54 13153.5 6510.77 13191.4C6474.99 13229.3 6468.33 13272.8 6477.1 13273.8Z" fill="#263238"/>
<path opacity="0.3" d="M6115.5 12981.7L6230.89 13073.2L6735.23 12468.9L6634.92 12382.3L6115.5 12981.7Z" fill="black"/>
<path d="M6348.38 13168.2C6350.49 13170.3 6374.34 13150 6399.94 13106.9C6414.85 13081.5 6426.63 13054.4 6435.01 13026.2C6439.81 13009.5 6443.55 12992.5 6446.23 12975.3C6447.72 12965.2 6447.72 12955 6446.23 12944.8C6445.19 12937.4 6441.75 12930.4 6436.45 12925C6431.14 12919.7 6424.24 12916.2 6416.77 12915C6410.22 12914.6 6403.65 12915.7 6397.57 12918.2C6391.5 12920.6 6386.07 12924.5 6381.7 12929.4C6375.03 12937.1 6369.48 12945.7 6365.22 12955C6357.49 12970.8 6351.04 12987.3 6345.93 13004.1C6337.72 13032.7 6334.05 13062.4 6335.06 13092.1C6333.26 13119.4 6339.87 13146.6 6353.99 13170C6358.55 13170 6351.54 13139.5 6353.99 13092.1C6356.7 13048.5 6368.66 13005.9 6389.07 12967.3C6396.78 12951.5 6405.9 12940.6 6414.32 12942C6422.74 12943.4 6418.53 12942 6420.28 12949C6421.27 12956.6 6421.27 12964.3 6420.28 12971.8C6418.05 12987.9 6415.01 13003.8 6411.16 13019.5C6404.42 13046.5 6395.15 13072.8 6383.46 13098.1C6369.89 13120.5 6358.17 13144 6348.38 13168.2V13168.2Z" fill="#263238"/>
<path d="M6363.11 13167.9C6365.57 13167.9 6354.35 13136.3 6317.87 13101.6C6296.14 13081.3 6271.12 13064.8 6243.87 13052.9C6227.61 13045.8 6210.69 13040.4 6193.37 13036.7C6182.51 13033.2 6170.93 13032.6 6159.75 13034.8C6148.56 13037.1 6138.16 13042.2 6129.53 13049.7C6125.04 13055.2 6122.19 13061.9 6121.32 13069C6120.45 13076.1 6121.6 13083.2 6124.62 13089.7C6129.14 13098.9 6134.93 13107.4 6141.81 13114.9C6153.67 13128.6 6167.5 13140.4 6182.84 13150C6208.6 13166 6237.84 13175.5 6268.07 13177.7C6319.97 13180.5 6348.38 13161.9 6346.63 13159.5C6321.29 13161.3 6295.86 13161.3 6270.52 13159.5C6244.04 13155 6218.82 13145 6196.52 13130C6183.44 13121.3 6171.63 13110.8 6161.45 13098.8C6150.23 13085.8 6143.91 13072.1 6149.17 13068.3C6154.89 13064.9 6161.25 13062.8 6167.84 13062.1C6174.43 13061.4 6181.09 13062 6187.4 13064.1C6203.06 13067.1 6218.43 13071.4 6233.35 13077.1C6258.43 13087.2 6282.02 13100.6 6303.49 13117C6342.77 13144.7 6359.61 13170.3 6363.11 13167.9Z" fill="#263238"/>
<path d="M4191.81 9892.87C4191.81 9892.87 4234.59 7923.23 4191.81 7923.23C4149.02 7923.23 3845.29 7749.97 3845.29 7749.97L3465.81 10676.7C3465.81 10676.7 3430.74 11005.4 3838.28 11237.9C4245.82 11470.4 6062.9 13085.8 6062.9 13085.8L6678.76 12335.6C6678.76 12335.6 5482.46 11088.8 4995.3 10676.7C4609.51 10355.8 4191.81 9892.87 4191.81 9892.87Z" fill="#263238"/>
<path d="M5306.04 9433.78L5347.78 9121.99C5347.78 9121.99 5647.29 8490.69 5690.08 8222.04C5732.87 7953.39 5704.81 7371.19 5704.81 7371.19H3812.68C3812.68 7371.19 3820.74 9507.43 4049.06 10106.8C4049.06 10106.8 4164.8 11253.7 4181.99 11349.8C4217.06 11553.9 4344.37 13642.1 4344.37 13642.1L5298.33 13607C5298.33 13607 5381.1 11687.2 5314.81 11142.1C5282.19 10872.1 5266.76 10584.5 5259.4 10346.7C5250.4 10041.6 5266 9736.34 5306.04 9433.78V9433.78Z" fill="#263238"/>
<path d="M3864.23 7994.42C3864.59 7997.45 3864.59 8000.51 3864.23 8003.54C3864.23 8010.91 3864.23 8020.02 3865.99 8031.25C3865.99 8056.85 3868.79 8092.62 3870.9 8136.46C3874.4 8228.7 3881.42 8362.33 3890.89 8527.17C3909.83 8856.84 3945.25 9311.73 3996.1 9812.9C4046.96 10314.1 4104.13 10766.9 4144.46 11094.8C4164.45 11257.5 4179.53 11389.7 4191.81 11483C4197.07 11527.9 4201.28 11563 4204.08 11588.3C4204.08 11599.5 4206.19 11608.6 4206.89 11616C4207.59 11623.3 4206.89 11625.4 4206.89 11625.4C4205.74 11622.5 4204.91 11619.4 4204.43 11616.3L4200.22 11589L4184.44 11483.7C4171.82 11390.8 4153.58 11258.6 4131.13 11096.2C4087.64 10768.6 4029.77 10315.8 3977.52 9814.31C3925.26 9312.78 3892.29 8857.54 3876.51 8527.52C3868.44 8362.33 3863.88 8228.7 3862.48 8136.46C3862.48 8091.22 3862.48 8055.8 3860.73 8031.25V8003.89C3861.56 8000.62 3862.74 7997.45 3864.23 7994.42Z" fill="#455A64"/>
<path d="M5257.64 10522.8C5260.35 10532.9 5262.23 10543.2 5263.25 10553.6C5266.06 10575.4 5270.27 10605.2 5275.53 10642.7C5285 10720.6 5296.92 10833.1 5307.8 10972.4C5330.24 11251.2 5347.08 11638.8 5353.39 12063.8C5359.7 12488.9 5353.39 12877.1 5336.56 13156.3C5329.54 13296.6 5320.42 13408.8 5313.06 13486.7C5308.85 13524.2 5305.34 13554 5302.89 13576.1C5302.15 13586.6 5300.63 13597.1 5298.33 13607.3C5297.4 13596.8 5297.4 13586.3 5298.33 13575.8C5300.08 13553.7 5302.18 13523.9 5304.99 13486C5310.25 13408.1 5317.27 13295.2 5322.88 13155.6C5334.45 12876.8 5339.36 12489.2 5334.1 12064.2C5328.84 11639.1 5313.06 11251.9 5293.77 10973.4C5284.65 10833.1 5274.83 10721.3 5267.46 10643.4C5263.61 10605.9 5260.45 10576.1 5258.34 10554C5257.25 10543.6 5257.02 10533.2 5257.64 10522.8V10522.8Z" fill="#455A64"/>
<path d="M5629.76 3398.94C5629.76 3398.94 5939.44 3481.36 6005.38 3942.9C6071.32 4404.45 5949.26 4536.32 5949.26 4536.32C5949.26 4536.32 5999.42 3677.06 5614.68 3559.92L5629.76 3415.77" fill="#263238"/>
<path d="M3519.83 4906.33L1921.24 4875.12L1939.83 4952.63L3512.11 4975.77L3519.83 4906.33Z" fill="#263238"/>
<path d="M5458.26 3543.78C5398.29 3529.15 5335.18 3534.7 5278.69 3559.57C5149.27 3613.93 4912.18 3770 4895.35 4213.31L4867.99 4927.73L5890.34 5061.7C5890.34 5061.7 5977.32 3681.97 5458.26 3543.78Z" fill="#FF725E"/>
<path d="M3576.64 5057.49L4874.31 5447.49L4893.6 4925.62L5670.09 5038.55L5626.6 5887.3C5622.19 6008.42 5578.09 6124.73 5501.1 6218.33C5424.1 6311.93 5318.47 6377.63 5200.48 6405.31V6405.31C5064.78 6437.03 4922.12 6416.37 4801.01 6347.44L3423.73 5564.28L3576.64 5057.49Z" fill="#FFBE9D"/>
<path d="M5890.34 5061.7C5890.34 5061.7 5890.34 5057.14 5890.34 5049.43C5890.34 5041.71 5890.34 5029.08 5888.59 5014.35C5888.59 4983.14 5886.13 4939.3 5884.03 4883.19C5880.52 4769.2 5875.26 4606.47 5868.95 4405.5C5865.79 4305.2 5862.64 4195.07 5859.48 4077.23C5859.48 4047.77 5857.73 4017.61 5856.67 3987.1C5856.67 3972.37 5853.87 3957.28 5852.11 3941.85C5850.36 3926.42 5846.85 3911.69 5842.65 3896.61C5816.79 3798.78 5760.34 3711.77 5681.53 3648.3C5602.72 3584.82 5505.69 3548.2 5404.6 3543.79C5331.98 3543.09 5260.72 3563.43 5199.42 3602.36C5136.11 3642.7 5082.08 3696.01 5040.9 3758.78C4982.09 3849.04 4942.34 3950.36 4924.11 4056.54C4906.18 4158.3 4895.52 4261.2 4892.19 4364.47C4886.58 4565.78 4881.32 4755.17 4876.41 4927.38L4869.75 4919.31L5608.72 5020.32L5816.34 5049.43L5872.11 5059.95L5891.4 5063.46L5872.11 5059.95L5818.45 5053.99L5611.87 5028.73L4866.59 4935.44H4859.93V4928.43C4864.14 4755.87 4867.29 4566.84 4873.96 4365.17C4876.76 4260.97 4887.19 4157.11 4905.17 4054.43C4923.74 3945.83 4964.45 3842.21 5024.77 3750.01C5067.37 3685.06 5123.32 3629.94 5188.9 3588.33C5253.1 3547.49 5327.82 3526.28 5403.89 3527.3C5475.15 3530.34 5544.88 3548.92 5608.2 3581.76C5671.51 3614.6 5726.87 3660.89 5770.4 3717.39C5811.1 3769.27 5840.7 3828.96 5857.38 3892.75C5861.23 3908.18 5863.69 3923.97 5866.85 3939.75C5870 3955.53 5870 3970.96 5871.4 3986.74C5871.4 4017.26 5871.4 4047.77 5873.51 4077.58C5875.96 4196.83 5878.07 4308 5880.17 4409.36C5883.68 4610.68 5886.49 4773.76 5888.59 4887.74C5888.59 4942.81 5888.59 4986.3 5890.34 5016.81V5051.88C5890.66 5055.15 5890.66 5058.44 5890.34 5061.7Z" fill="#263238"/>
<path d="M3602.95 5072.92L3291.51 4842.5C3234.69 4800.41 3146.31 4807.43 3075.81 4802.87C2935.53 4790.24 2706.51 4873.01 2697.74 4889.15L2791.73 4964.2L2186.39 4945.61C2207.16 4986.81 2238.71 5021.61 2277.67 5046.31C2316.64 5071.01 2361.57 5084.69 2407.69 5085.9C2407.69 5085.9 2426.98 5222.68 2602.69 5248.63C2602.69 5248.63 2648.29 5359.46 2746.14 5391.73C2746.14 5391.73 2765.43 5515.53 2921.5 5508.87L3452.14 5568.14L3602.95 5072.92Z" fill="#FFBE9D"/>
<path d="M2785.77 5107.29C2721.91 5112.86 2657.65 5112.15 2593.93 5105.19C2529.93 5104.75 2466.13 5097.93 2403.48 5084.85C2467.25 5079.7 2531.34 5080.4 2594.98 5086.95C2659.06 5087.86 2722.93 5094.67 2785.77 5107.29Z" fill="#EB996E"/>
<path d="M2939.38 5253.19C2883.99 5262.19 2827.79 5265.25 2771.74 5262.31C2715.69 5265.25 2659.49 5262.19 2604.1 5253.19C2659.47 5243.99 2715.69 5240.93 2771.74 5244.08C2827.79 5240.93 2884.01 5243.99 2939.38 5253.19V5253.19Z" fill="#EB996E"/>
<path d="M3103.87 5390.68C3048.5 5399.88 2992.27 5402.94 2936.23 5399.8C2880.3 5402.95 2824.19 5399.89 2768.93 5390.68C2824.21 5381.67 2880.3 5378.61 2936.23 5381.56C2992.27 5378.62 3048.47 5381.68 3103.87 5390.68V5390.68Z" fill="#EB996E"/>
<path d="M4960.23 5712.29C4934.63 5673.06 4915.23 5630.12 4902.71 5584.98C4883.91 5542 4872.07 5496.3 4867.64 5449.6C4889.02 5490.86 4906.07 5534.23 4918.5 5579.01C4937.1 5621.83 4951.09 5666.51 4960.23 5712.29V5712.29Z" fill="#EB996E"/>
<path d="M5052.47 5661.78C5016.43 5628.39 4983.67 5591.63 4954.62 5552.01C4920.85 5516.48 4890.66 5477.72 4864.49 5436.27C4904.75 5465.74 4940.23 5501.23 4969.7 5541.49C5003.02 5577.33 5030.91 5617.86 5052.47 5661.78V5661.78Z" fill="#EB996E"/>
</svg>
